<?xml version="1.0" encoding="UTF-8" standalone="no"?>
<!DOCTYPE svg PUBLIC "-//W3C//DTD SVG 1.1//EN"
 "http://www.w3.org/Graphics/SVG/1.1/DTD/svg11.dtd">
<!-- Generated by graphviz version 2.42.3 (0)
 -->
<!-- Title: %3 Pages: 1 -->
<svg width="1779pt" height="692pt"
 viewBox="0.00 0.00 1779.14 692.00" xmlns="http://www.w3.org/2000/svg" xmlns:xlink="http://www.w3.org/1999/xlink">
<g id="graph0" class="graph" transform="scale(1 1) rotate(0) translate(4 688)">
<title>%3</title>
<polygon fill="white" stroke="transparent" points="-4,4 -4,-688 1775.14,-688 1775.14,4 -4,4"/>
<!-- 0 -->
<g id="node1" class="node">
<title>0</title>
<ellipse fill="none" stroke="black" cx="874.14" cy="-666" rx="51.19" ry="18"/>
<text text-anchor="middle" x="874.14" y="-662.3" font-family="Times,serif" font-size="14.00">Program</text>
</g>
<!-- 1 -->
<g id="node2" class="node">
<title>1</title>
<ellipse fill="none" stroke="black" cx="186.14" cy="-594" rx="59.59" ry="18"/>
<text text-anchor="middle" x="186.14" y="-590.3" font-family="Times,serif" font-size="14.00">Statement</text>
</g>
<!-- 0&#45;&gt;1 -->
<g id="edge1" class="edge">
<title>0&#45;&gt;1</title>
<path fill="none" stroke="black" d="M825.49,-660.05C704.42,-647.73 389.46,-615.69 251.97,-601.7"/>
<polygon fill="black" stroke="black" points="252.29,-598.21 241.98,-600.68 251.58,-605.18 252.29,-598.21"/>
</g>
<!-- 8 -->
<g id="node9" class="node">
<title>8</title>
<ellipse fill="none" stroke="black" cx="481.14" cy="-594" rx="59.59" ry="18"/>
<text text-anchor="middle" x="481.14" y="-590.3" font-family="Times,serif" font-size="14.00">Statement</text>
</g>
<!-- 0&#45;&gt;8 -->
<g id="edge8" class="edge">
<title>0&#45;&gt;8</title>
<path fill="none" stroke="black" d="M829.45,-657.04C758.64,-644.43 620.6,-619.84 541.22,-605.7"/>
<polygon fill="black" stroke="black" points="541.82,-602.25 531.36,-603.94 540.59,-609.14 541.82,-602.25"/>
</g>
<!-- 13 -->
<g id="node14" class="node">
<title>13</title>
<ellipse fill="none" stroke="black" cx="697.14" cy="-594" rx="59.59" ry="18"/>
<text text-anchor="middle" x="697.14" y="-590.3" font-family="Times,serif" font-size="14.00">Statement</text>
</g>
<!-- 0&#45;&gt;13 -->
<g id="edge13" class="edge">
<title>0&#45;&gt;13</title>
<path fill="none" stroke="black" d="M841.27,-652C813.21,-640.9 772.61,-624.85 741.65,-612.6"/>
<polygon fill="black" stroke="black" points="742.55,-609.19 731.96,-608.77 739.98,-615.7 742.55,-609.19"/>
</g>
<!-- 28 -->
<g id="node29" class="node">
<title>28</title>
<ellipse fill="none" stroke="black" cx="874.14" cy="-594" rx="59.59" ry="18"/>
<text text-anchor="middle" x="874.14" y="-590.3" font-family="Times,serif" font-size="14.00">Statement</text>
</g>
<!-- 0&#45;&gt;28 -->
<g id="edge28" class="edge">
<title>0&#45;&gt;28</title>
<path fill="none" stroke="black" d="M874.14,-647.7C874.14,-639.98 874.14,-630.71 874.14,-622.11"/>
<polygon fill="black" stroke="black" points="877.64,-622.1 874.14,-612.1 870.64,-622.1 877.64,-622.1"/>
</g>
<!-- 63 -->
<g id="node64" class="node">
<title>63</title>
<ellipse fill="none" stroke="black" cx="1012.14" cy="-594" rx="59.59" ry="18"/>
<text text-anchor="middle" x="1012.14" y="-590.3" font-family="Times,serif" font-size="14.00">Statement</text>
</g>
<!-- 0&#45;&gt;63 -->
<g id="edge63" class="edge">
<title>0&#45;&gt;63</title>
<path fill="none" stroke="black" d="M902.07,-650.83C922.7,-640.37 951.03,-626 973.78,-614.46"/>
<polygon fill="black" stroke="black" points="975.5,-617.51 982.83,-609.87 972.33,-611.27 975.5,-617.51"/>
</g>
<!-- 73 -->
<g id="node74" class="node">
<title>73</title>
<ellipse fill="none" stroke="black" cx="1150.14" cy="-594" rx="59.59" ry="18"/>
<text text-anchor="middle" x="1150.14" y="-590.3" font-family="Times,serif" font-size="14.00">Statement</text>
</g>
<!-- 0&#45;&gt;73 -->
<g id="edge73" class="edge">
<title>0&#45;&gt;73</title>
<path fill="none" stroke="black" d="M914.57,-654.75C962.54,-642.58 1042.71,-622.25 1096,-608.73"/>
<polygon fill="black" stroke="black" points="1097.12,-612.06 1105.95,-606.21 1095.4,-605.27 1097.12,-612.06"/>
</g>
<!-- 77 -->
<g id="node78" class="node">
<title>77</title>
<ellipse fill="none" stroke="black" cx="1256.14" cy="-594" rx="28.7" ry="18"/>
<text text-anchor="middle" x="1256.14" y="-590.3" font-family="Times,serif" font-size="14.00">EOI</text>
</g>
<!-- 0&#45;&gt;77 -->
<g id="edge77" class="edge">
<title>0&#45;&gt;77</title>
<path fill="none" stroke="black" d="M924.23,-661.69C992.23,-656.21 1116.99,-642.66 1219.14,-612 1221.07,-611.42 1223.03,-610.76 1224.99,-610.04"/>
<polygon fill="black" stroke="black" points="1226.69,-613.13 1234.62,-606.1 1224.04,-606.65 1226.69,-613.13"/>
</g>
<!-- 2 -->
<g id="node3" class="node">
<title>2</title>
<ellipse fill="none" stroke="black" cx="176.14" cy="-522" rx="46.29" ry="18"/>
<text text-anchor="middle" x="176.14" y="-518.3" font-family="Times,serif" font-size="14.00">DecList</text>
</g>
<!-- 1&#45;&gt;2 -->
<g id="edge2" class="edge">
<title>1&#45;&gt;2</title>
<path fill="none" stroke="black" d="M183.67,-575.7C182.57,-567.98 181.25,-558.71 180.02,-550.11"/>
<polygon fill="black" stroke="black" points="183.47,-549.51 178.59,-540.1 176.54,-550.5 183.47,-549.51"/>
</g>
<!-- 3 -->
<g id="node4" class="node">
<title>3</title>
<ellipse fill="none" stroke="black" cx="59.14" cy="-450" rx="59.29" ry="18"/>
<text text-anchor="middle" x="59.14" y="-446.3" font-family="Times,serif" font-size="14.00">const float</text>
</g>
<!-- 2&#45;&gt;3 -->
<g id="edge3" class="edge">
<title>2&#45;&gt;3</title>
<path fill="none" stroke="black" d="M151.9,-506.5C135.11,-496.45 112.49,-482.92 93.8,-471.73"/>
<polygon fill="black" stroke="black" points="95.36,-468.59 84.98,-466.46 91.76,-474.59 95.36,-468.59"/>
</g>
<!-- 4 -->
<g id="node5" class="node">
<title>4</title>
<ellipse fill="none" stroke="black" cx="176.14" cy="-450" rx="40.09" ry="18"/>
<text text-anchor="middle" x="176.14" y="-446.3" font-family="Times,serif" font-size="14.00">DeclId</text>
</g>
<!-- 2&#45;&gt;4 -->
<g id="edge4" class="edge">
<title>2&#45;&gt;4</title>
<path fill="none" stroke="black" d="M176.14,-503.7C176.14,-495.98 176.14,-486.71 176.14,-478.11"/>
<polygon fill="black" stroke="black" points="179.64,-478.1 176.14,-468.1 172.64,-478.1 179.64,-478.1"/>
</g>
<!-- 5 -->
<g id="node6" class="node">
<title>5</title>
<ellipse fill="none" stroke="black" cx="176.14" cy="-378" rx="27" ry="18"/>
<text text-anchor="middle" x="176.14" y="-374.3" font-family="Times,serif" font-size="14.00">=</text>
</g>
<!-- 4&#45;&gt;5 -->
<g id="edge5" class="edge">
<title>4&#45;&gt;5</title>
<path fill="none" stroke="black" d="M176.14,-431.7C176.14,-423.98 176.14,-414.71 176.14,-406.11"/>
<polygon fill="black" stroke="black" points="179.64,-406.1 176.14,-396.1 172.64,-406.1 179.64,-406.1"/>
</g>
<!-- 6 -->
<g id="node7" class="node">
<title>6</title>
<ellipse fill="none" stroke="black" cx="138.14" cy="-306" rx="27" ry="18"/>
<text text-anchor="middle" x="138.14" y="-302.3" font-family="Times,serif" font-size="14.00">pi</text>
</g>
<!-- 5&#45;&gt;6 -->
<g id="edge6" class="edge">
<title>5&#45;&gt;6</title>
<path fill="none" stroke="black" d="M167.33,-360.76C162.73,-352.28 156.99,-341.71 151.82,-332.2"/>
<polygon fill="black" stroke="black" points="154.76,-330.27 146.91,-323.15 148.61,-333.61 154.76,-330.27"/>
</g>
<!-- 7 -->
<g id="node8" class="node">
<title>7</title>
<ellipse fill="none" stroke="black" cx="214.14" cy="-306" rx="31.4" ry="18"/>
<text text-anchor="middle" x="214.14" y="-302.3" font-family="Times,serif" font-size="14.00">3.14</text>
</g>
<!-- 5&#45;&gt;7 -->
<g id="edge7" class="edge">
<title>5&#45;&gt;7</title>
<path fill="none" stroke="black" d="M184.96,-360.76C189.5,-352.4 195.14,-342.02 200.24,-332.61"/>
<polygon fill="black" stroke="black" points="203.42,-334.09 205.12,-323.63 197.27,-330.75 203.42,-334.09"/>
</g>
<!-- 9 -->
<g id="node10" class="node">
<title>9</title>
<ellipse fill="none" stroke="black" cx="396.14" cy="-522" rx="46.29" ry="18"/>
<text text-anchor="middle" x="396.14" y="-518.3" font-family="Times,serif" font-size="14.00">DecList</text>
</g>
<!-- 8&#45;&gt;9 -->
<g id="edge9" class="edge">
<title>8&#45;&gt;9</title>
<path fill="none" stroke="black" d="M461.43,-576.76C450,-567.36 435.46,-555.38 423,-545.12"/>
<polygon fill="black" stroke="black" points="425.11,-542.32 415.17,-538.67 420.66,-547.72 425.11,-542.32"/>
</g>
<!-- 10 -->
<g id="node11" class="node">
<title>10</title>
<ellipse fill="none" stroke="black" cx="286.14" cy="-450" rx="51.19" ry="18"/>
<text text-anchor="middle" x="286.14" y="-446.3" font-family="Times,serif" font-size="14.00">const int</text>
</g>
<!-- 9&#45;&gt;10 -->
<g id="edge10" class="edge">
<title>9&#45;&gt;10</title>
<path fill="none" stroke="black" d="M373.09,-506.33C357.31,-496.29 336.18,-482.84 318.7,-471.71"/>
<polygon fill="black" stroke="black" points="320.25,-468.55 309.93,-466.14 316.49,-474.46 320.25,-468.55"/>
</g>
<!-- 11 -->
<g id="node12" class="node">
<title>11</title>
<ellipse fill="none" stroke="black" cx="396.14" cy="-450" rx="40.09" ry="18"/>
<text text-anchor="middle" x="396.14" y="-446.3" font-family="Times,serif" font-size="14.00">DeclId</text>
</g>
<!-- 9&#45;&gt;11 -->
<g id="edge11" class="edge">
<title>9&#45;&gt;11</title>
<path fill="none" stroke="black" d="M396.14,-503.7C396.14,-495.98 396.14,-486.71 396.14,-478.11"/>
<polygon fill="black" stroke="black" points="399.64,-478.1 396.14,-468.1 392.64,-478.1 399.64,-478.1"/>
</g>
<!-- 12 -->
<g id="node13" class="node">
<title>12</title>
<ellipse fill="none" stroke="black" cx="396.14" cy="-378" rx="27" ry="18"/>
<text text-anchor="middle" x="396.14" y="-374.3" font-family="Times,serif" font-size="14.00">x</text>
</g>
<!-- 11&#45;&gt;12 -->
<g id="edge12" class="edge">
<title>11&#45;&gt;12</title>
<path fill="none" stroke="black" d="M396.14,-431.7C396.14,-423.98 396.14,-414.71 396.14,-406.11"/>
<polygon fill="black" stroke="black" points="399.64,-406.1 396.14,-396.1 392.64,-406.1 399.64,-406.1"/>
</g>
<!-- 14 -->
<g id="node15" class="node">
<title>14</title>
<ellipse fill="none" stroke="black" cx="665.14" cy="-522" rx="46.29" ry="18"/>
<text text-anchor="middle" x="665.14" y="-518.3" font-family="Times,serif" font-size="14.00">DecList</text>
</g>
<!-- 13&#45;&gt;14 -->
<g id="edge14" class="edge">
<title>13&#45;&gt;14</title>
<path fill="none" stroke="black" d="M689.4,-576.05C685.7,-567.97 681.2,-558.12 677.08,-549.11"/>
<polygon fill="black" stroke="black" points="680.16,-547.43 672.82,-539.79 673.79,-550.34 680.16,-547.43"/>
</g>
<!-- 15 -->
<g id="node16" class="node">
<title>15</title>
<ellipse fill="none" stroke="black" cx="481.14" cy="-450" rx="27" ry="18"/>
<text text-anchor="middle" x="481.14" y="-446.3" font-family="Times,serif" font-size="14.00">int</text>
</g>
<!-- 14&#45;&gt;15 -->
<g id="edge15" class="edge">
<title>14&#45;&gt;15</title>
<path fill="none" stroke="black" d="M630.99,-509.82C600.76,-499.68 555.6,-483.92 517.14,-468 515.32,-467.25 513.46,-466.45 511.59,-465.63"/>
<polygon fill="black" stroke="black" points="512.86,-462.36 502.31,-461.41 509.97,-468.74 512.86,-462.36"/>
</g>
<!-- 16 -->
<g id="node17" class="node">
<title>16</title>
<ellipse fill="none" stroke="black" cx="566.14" cy="-450" rx="40.09" ry="18"/>
<text text-anchor="middle" x="566.14" y="-446.3" font-family="Times,serif" font-size="14.00">DeclId</text>
</g>
<!-- 14&#45;&gt;16 -->
<g id="edge16" class="edge">
<title>14&#45;&gt;16</title>
<path fill="none" stroke="black" d="M643.66,-505.81C629.46,-495.77 610.67,-482.48 595.14,-471.5"/>
<polygon fill="black" stroke="black" points="597.09,-468.6 586.91,-465.68 593.05,-474.31 597.09,-468.6"/>
</g>
<!-- 20 -->
<g id="node21" class="node">
<title>20</title>
<ellipse fill="none" stroke="black" cx="665.14" cy="-450" rx="40.09" ry="18"/>
<text text-anchor="middle" x="665.14" y="-446.3" font-family="Times,serif" font-size="14.00">DeclId</text>
</g>
<!-- 14&#45;&gt;20 -->
<g id="edge20" class="edge">
<title>14&#45;&gt;20</title>
<path fill="none" stroke="black" d="M665.14,-503.7C665.14,-495.98 665.14,-486.71 665.14,-478.11"/>
<polygon fill="black" stroke="black" points="668.64,-478.1 665.14,-468.1 661.64,-478.1 668.64,-478.1"/>
</g>
<!-- 24 -->
<g id="node25" class="node">
<title>24</title>
<ellipse fill="none" stroke="black" cx="764.14" cy="-450" rx="40.09" ry="18"/>
<text text-anchor="middle" x="764.14" y="-446.3" font-family="Times,serif" font-size="14.00">DeclId</text>
</g>
<!-- 14&#45;&gt;24 -->
<g id="edge24" class="edge">
<title>14&#45;&gt;24</title>
<path fill="none" stroke="black" d="M686.63,-505.81C700.83,-495.77 719.62,-482.48 735.15,-471.5"/>
<polygon fill="black" stroke="black" points="737.24,-474.31 743.38,-465.68 733.2,-468.6 737.24,-474.31"/>
</g>
<!-- 17 -->
<g id="node18" class="node">
<title>17</title>
<ellipse fill="none" stroke="black" cx="472.14" cy="-378" rx="27" ry="18"/>
<text text-anchor="middle" x="472.14" y="-374.3" font-family="Times,serif" font-size="14.00">=</text>
</g>
<!-- 16&#45;&gt;17 -->
<g id="edge17" class="edge">
<title>16&#45;&gt;17</title>
<path fill="none" stroke="black" d="M546.21,-434.15C532.02,-423.59 512.84,-409.31 497.56,-397.92"/>
<polygon fill="black" stroke="black" points="499.63,-395.11 489.52,-391.94 495.45,-400.72 499.63,-395.11"/>
</g>
<!-- 18 -->
<g id="node19" class="node">
<title>18</title>
<ellipse fill="none" stroke="black" cx="400.14" cy="-306" rx="27" ry="18"/>
<text text-anchor="middle" x="400.14" y="-302.3" font-family="Times,serif" font-size="14.00">i</text>
</g>
<!-- 17&#45;&gt;18 -->
<g id="edge18" class="edge">
<title>17&#45;&gt;18</title>
<path fill="none" stroke="black" d="M457.57,-362.83C447.39,-352.94 433.62,-339.55 422.11,-328.36"/>
<polygon fill="black" stroke="black" points="424.55,-325.85 414.94,-321.38 419.67,-330.87 424.55,-325.85"/>
</g>
<!-- 19 -->
<g id="node20" class="node">
<title>19</title>
<ellipse fill="none" stroke="black" cx="472.14" cy="-306" rx="27" ry="18"/>
<text text-anchor="middle" x="472.14" y="-302.3" font-family="Times,serif" font-size="14.00">0</text>
</g>
<!-- 17&#45;&gt;19 -->
<g id="edge19" class="edge">
<title>17&#45;&gt;19</title>
<path fill="none" stroke="black" d="M472.14,-359.7C472.14,-351.98 472.14,-342.71 472.14,-334.11"/>
<polygon fill="black" stroke="black" points="475.64,-334.1 472.14,-324.1 468.64,-334.1 475.64,-334.1"/>
</g>
<!-- 21 -->
<g id="node22" class="node">
<title>21</title>
<ellipse fill="none" stroke="black" cx="616.14" cy="-378" rx="27" ry="18"/>
<text text-anchor="middle" x="616.14" y="-374.3" font-family="Times,serif" font-size="14.00">=</text>
</g>
<!-- 20&#45;&gt;21 -->
<g id="edge21" class="edge">
<title>20&#45;&gt;21</title>
<path fill="none" stroke="black" d="M653.53,-432.41C647.38,-423.62 639.71,-412.66 632.92,-402.96"/>
<polygon fill="black" stroke="black" points="635.6,-400.7 627,-394.51 629.87,-404.71 635.6,-400.7"/>
</g>
<!-- 22 -->
<g id="node23" class="node">
<title>22</title>
<ellipse fill="none" stroke="black" cx="544.14" cy="-306" rx="27" ry="18"/>
<text text-anchor="middle" x="544.14" y="-302.3" font-family="Times,serif" font-size="14.00">j</text>
</g>
<!-- 21&#45;&gt;22 -->
<g id="edge22" class="edge">
<title>21&#45;&gt;22</title>
<path fill="none" stroke="black" d="M601.57,-362.83C591.39,-352.94 577.62,-339.55 566.11,-328.36"/>
<polygon fill="black" stroke="black" points="568.55,-325.85 558.94,-321.38 563.67,-330.87 568.55,-325.85"/>
</g>
<!-- 23 -->
<g id="node24" class="node">
<title>23</title>
<ellipse fill="none" stroke="black" cx="616.14" cy="-306" rx="27" ry="18"/>
<text text-anchor="middle" x="616.14" y="-302.3" font-family="Times,serif" font-size="14.00">1</text>
</g>
<!-- 21&#45;&gt;23 -->
<g id="edge23" class="edge">
<title>21&#45;&gt;23</title>
<path fill="none" stroke="black" d="M616.14,-359.7C616.14,-351.98 616.14,-342.71 616.14,-334.11"/>
<polygon fill="black" stroke="black" points="619.64,-334.1 616.14,-324.1 612.64,-334.1 619.64,-334.1"/>
</g>
<!-- 25 -->
<g id="node26" class="node">
<title>25</title>
<ellipse fill="none" stroke="black" cx="760.14" cy="-378" rx="27" ry="18"/>
<text text-anchor="middle" x="760.14" y="-374.3" font-family="Times,serif" font-size="14.00">=</text>
</g>
<!-- 24&#45;&gt;25 -->
<g id="edge25" class="edge">
<title>24&#45;&gt;25</title>
<path fill="none" stroke="black" d="M763.16,-431.7C762.72,-423.98 762.19,-414.71 761.69,-406.11"/>
<polygon fill="black" stroke="black" points="765.19,-405.89 761.12,-396.1 758.2,-406.29 765.19,-405.89"/>
</g>
<!-- 26 -->
<g id="node27" class="node">
<title>26</title>
<ellipse fill="none" stroke="black" cx="688.14" cy="-306" rx="27" ry="18"/>
<text text-anchor="middle" x="688.14" y="-302.3" font-family="Times,serif" font-size="14.00">k</text>
</g>
<!-- 25&#45;&gt;26 -->
<g id="edge26" class="edge">
<title>25&#45;&gt;26</title>
<path fill="none" stroke="black" d="M745.57,-362.83C735.39,-352.94 721.62,-339.55 710.11,-328.36"/>
<polygon fill="black" stroke="black" points="712.55,-325.85 702.94,-321.38 707.67,-330.87 712.55,-325.85"/>
</g>
<!-- 27 -->
<g id="node28" class="node">
<title>27</title>
<ellipse fill="none" stroke="black" cx="760.14" cy="-306" rx="27" ry="18"/>
<text text-anchor="middle" x="760.14" y="-302.3" font-family="Times,serif" font-size="14.00">2</text>
</g>
<!-- 25&#45;&gt;27 -->
<g id="edge27" class="edge">
<title>25&#45;&gt;27</title>
<path fill="none" stroke="black" d="M760.14,-359.7C760.14,-351.98 760.14,-342.71 760.14,-334.11"/>
<polygon fill="black" stroke="black" points="763.64,-334.1 760.14,-324.1 756.64,-334.1 763.64,-334.1"/>
</g>
<!-- 29 -->
<g id="node30" class="node">
<title>29</title>
<ellipse fill="none" stroke="black" cx="894.14" cy="-522" rx="37.09" ry="18"/>
<text text-anchor="middle" x="894.14" y="-518.3" font-family="Times,serif" font-size="14.00">While</text>
</g>
<!-- 28&#45;&gt;29 -->
<g id="edge29" class="edge">
<title>28&#45;&gt;29</title>
<path fill="none" stroke="black" d="M878.99,-576.05C881.21,-568.26 883.91,-558.82 886.41,-550.08"/>
<polygon fill="black" stroke="black" points="889.83,-550.85 889.21,-540.28 883.1,-548.93 889.83,-550.85"/>
</g>
<!-- 30 -->
<g id="node31" class="node">
<title>30</title>
<ellipse fill="none" stroke="black" cx="894.14" cy="-450" rx="27" ry="18"/>
<text text-anchor="middle" x="894.14" y="-446.3" font-family="Times,serif" font-size="14.00">&lt;</text>
</g>
<!-- 29&#45;&gt;30 -->
<g id="edge30" class="edge">
<title>29&#45;&gt;30</title>
<path fill="none" stroke="black" d="M894.14,-503.7C894.14,-495.98 894.14,-486.71 894.14,-478.11"/>
<polygon fill="black" stroke="black" points="897.64,-478.1 894.14,-468.1 890.64,-478.1 897.64,-478.1"/>
</g>
<!-- 37 -->
<g id="node38" class="node">
<title>37</title>
<ellipse fill="none" stroke="black" cx="1068.14" cy="-450" rx="59.59" ry="18"/>
<text text-anchor="middle" x="1068.14" y="-446.3" font-family="Times,serif" font-size="14.00">Statement</text>
</g>
<!-- 29&#45;&gt;37 -->
<g id="edge37" class="edge">
<title>29&#45;&gt;37</title>
<path fill="none" stroke="black" d="M921.72,-509.91C949.24,-498.83 991.98,-481.64 1024.19,-468.68"/>
<polygon fill="black" stroke="black" points="1025.85,-471.79 1033.82,-464.81 1023.24,-465.29 1025.85,-471.79"/>
</g>
<!-- 31 -->
<g id="node32" class="node">
<title>31</title>
<ellipse fill="none" stroke="black" cx="832.14" cy="-378" rx="27" ry="18"/>
<text text-anchor="middle" x="832.14" y="-374.3" font-family="Times,serif" font-size="14.00">i</text>
</g>
<!-- 30&#45;&gt;31 -->
<g id="edge31" class="edge">
<title>30&#45;&gt;31</title>
<path fill="none" stroke="black" d="M881,-434.15C872.61,-424.69 861.58,-412.24 852.13,-401.56"/>
<polygon fill="black" stroke="black" points="854.52,-398.99 845.27,-393.82 849.28,-403.63 854.52,-398.99"/>
</g>
<!-- 32 -->
<g id="node33" class="node">
<title>32</title>
<ellipse fill="none" stroke="black" cx="904.14" cy="-378" rx="27" ry="18"/>
<text text-anchor="middle" x="904.14" y="-374.3" font-family="Times,serif" font-size="14.00">+</text>
</g>
<!-- 30&#45;&gt;32 -->
<g id="edge32" class="edge">
<title>30&#45;&gt;32</title>
<path fill="none" stroke="black" d="M896.57,-432.05C897.67,-424.35 899,-415.03 900.24,-406.36"/>
<polygon fill="black" stroke="black" points="903.73,-406.67 901.68,-396.28 896.8,-405.68 903.73,-406.67"/>
</g>
<!-- 33 -->
<g id="node34" class="node">
<title>33</title>
<ellipse fill="none" stroke="black" cx="832.14" cy="-306" rx="27" ry="18"/>
<text text-anchor="middle" x="832.14" y="-302.3" font-family="Times,serif" font-size="14.00">+</text>
</g>
<!-- 32&#45;&gt;33 -->
<g id="edge33" class="edge">
<title>32&#45;&gt;33</title>
<path fill="none" stroke="black" d="M889.57,-362.83C879.39,-352.94 865.62,-339.55 854.11,-328.36"/>
<polygon fill="black" stroke="black" points="856.55,-325.85 846.94,-321.38 851.67,-330.87 856.55,-325.85"/>
</g>
<!-- 36 -->
<g id="node37" class="node">
<title>36</title>
<ellipse fill="none" stroke="black" cx="904.14" cy="-306" rx="27" ry="18"/>
<text text-anchor="middle" x="904.14" y="-302.3" font-family="Times,serif" font-size="14.00">k</text>
</g>
<!-- 32&#45;&gt;36 -->
<g id="edge36" class="edge">
<title>32&#45;&gt;36</title>
<path fill="none" stroke="black" d="M904.14,-359.7C904.14,-351.98 904.14,-342.71 904.14,-334.11"/>
<polygon fill="black" stroke="black" points="907.64,-334.1 904.14,-324.1 900.64,-334.1 907.64,-334.1"/>
</g>
<!-- 34 -->
<g id="node35" class="node">
<title>34</title>
<ellipse fill="none" stroke="black" cx="790.14" cy="-234" rx="27" ry="18"/>
<text text-anchor="middle" x="790.14" y="-230.3" font-family="Times,serif" font-size="14.00">3</text>
</g>
<!-- 33&#45;&gt;34 -->
<g id="edge34" class="edge">
<title>33&#45;&gt;34</title>
<path fill="none" stroke="black" d="M822.61,-289.12C817.48,-280.56 811.02,-269.8 805.22,-260.13"/>
<polygon fill="black" stroke="black" points="808.08,-258.08 799.93,-251.31 802.07,-261.68 808.08,-258.08"/>
</g>
<!-- 35 -->
<g id="node36" class="node">
<title>35</title>
<ellipse fill="none" stroke="black" cx="862.14" cy="-234" rx="27" ry="18"/>
<text text-anchor="middle" x="862.14" y="-230.3" font-family="Times,serif" font-size="14.00">j</text>
</g>
<!-- 33&#45;&gt;35 -->
<g id="edge35" class="edge">
<title>33&#45;&gt;35</title>
<path fill="none" stroke="black" d="M839.25,-288.41C842.8,-280.13 847.18,-269.92 851.15,-260.66"/>
<polygon fill="black" stroke="black" points="854.36,-262.04 855.09,-251.47 847.93,-259.28 854.36,-262.04"/>
</g>
<!-- 38 -->
<g id="node39" class="node">
<title>38</title>
<ellipse fill="none" stroke="black" cx="1147.14" cy="-378" rx="60.39" ry="18"/>
<text text-anchor="middle" x="1147.14" y="-374.3" font-family="Times,serif" font-size="14.00">BraceStmt</text>
</g>
<!-- 37&#45;&gt;38 -->
<g id="edge38" class="edge">
<title>37&#45;&gt;38</title>
<path fill="none" stroke="black" d="M1086.47,-432.76C1096.76,-423.64 1109.78,-412.1 1121.12,-402.06"/>
<polygon fill="black" stroke="black" points="1123.48,-404.64 1128.65,-395.39 1118.84,-399.4 1123.48,-404.64"/>
</g>
<!-- 39 -->
<g id="node40" class="node">
<title>39</title>
<ellipse fill="none" stroke="black" cx="1009.14" cy="-306" rx="59.59" ry="18"/>
<text text-anchor="middle" x="1009.14" y="-302.3" font-family="Times,serif" font-size="14.00">Statement</text>
</g>
<!-- 38&#45;&gt;39 -->
<g id="edge39" class="edge">
<title>38&#45;&gt;39</title>
<path fill="none" stroke="black" d="M1117.88,-362.15C1097.39,-351.76 1069.8,-337.77 1047.55,-326.48"/>
<polygon fill="black" stroke="black" points="1048.87,-323.23 1038.37,-321.82 1045.7,-329.47 1048.87,-323.23"/>
</g>
<!-- 46 -->
<g id="node47" class="node">
<title>46</title>
<ellipse fill="none" stroke="black" cx="1147.14" cy="-306" rx="59.59" ry="18"/>
<text text-anchor="middle" x="1147.14" y="-302.3" font-family="Times,serif" font-size="14.00">Statement</text>
</g>
<!-- 38&#45;&gt;46 -->
<g id="edge46" class="edge">
<title>38&#45;&gt;46</title>
<path fill="none" stroke="black" d="M1147.14,-359.7C1147.14,-351.98 1147.14,-342.71 1147.14,-334.11"/>
<polygon fill="black" stroke="black" points="1150.64,-334.1 1147.14,-324.1 1143.64,-334.1 1150.64,-334.1"/>
</g>
<!-- 52 -->
<g id="node53" class="node">
<title>52</title>
<ellipse fill="none" stroke="black" cx="1285.14" cy="-306" rx="59.59" ry="18"/>
<text text-anchor="middle" x="1285.14" y="-302.3" font-family="Times,serif" font-size="14.00">Statement</text>
</g>
<!-- 38&#45;&gt;52 -->
<g id="edge52" class="edge">
<title>38&#45;&gt;52</title>
<path fill="none" stroke="black" d="M1176.41,-362.15C1196.9,-351.76 1224.49,-337.77 1246.74,-326.48"/>
<polygon fill="black" stroke="black" points="1248.59,-329.47 1255.92,-321.82 1245.42,-323.23 1248.59,-329.47"/>
</g>
<!-- 57 -->
<g id="node58" class="node">
<title>57</title>
<ellipse fill="none" stroke="black" cx="1423.14" cy="-306" rx="59.59" ry="18"/>
<text text-anchor="middle" x="1423.14" y="-302.3" font-family="Times,serif" font-size="14.00">Statement</text>
</g>
<!-- 38&#45;&gt;57 -->
<g id="edge57" class="edge">
<title>38&#45;&gt;57</title>
<path fill="none" stroke="black" d="M1191.49,-365.75C1239.88,-353.48 1317.35,-333.83 1369.22,-320.68"/>
<polygon fill="black" stroke="black" points="1370.08,-324.07 1378.91,-318.22 1368.36,-317.28 1370.08,-324.07"/>
</g>
<!-- 40 -->
<g id="node41" class="node">
<title>40</title>
<ellipse fill="none" stroke="black" cx="988.14" cy="-234" rx="46.29" ry="18"/>
<text text-anchor="middle" x="988.14" y="-230.3" font-family="Times,serif" font-size="14.00">DecList</text>
</g>
<!-- 39&#45;&gt;40 -->
<g id="edge40" class="edge">
<title>39&#45;&gt;40</title>
<path fill="none" stroke="black" d="M1004.06,-288.05C1001.72,-280.26 998.89,-270.82 996.27,-262.08"/>
<polygon fill="black" stroke="black" points="999.55,-260.85 993.33,-252.28 992.85,-262.86 999.55,-260.85"/>
</g>
<!-- 41 -->
<g id="node42" class="node">
<title>41</title>
<ellipse fill="none" stroke="black" cx="891.14" cy="-162" rx="38.19" ry="18"/>
<text text-anchor="middle" x="891.14" y="-158.3" font-family="Times,serif" font-size="14.00">string</text>
</g>
<!-- 40&#45;&gt;41 -->
<g id="edge41" class="edge">
<title>40&#45;&gt;41</title>
<path fill="none" stroke="black" d="M967.1,-217.81C953.22,-207.79 934.86,-194.55 919.68,-183.59"/>
<polygon fill="black" stroke="black" points="921.31,-180.46 911.16,-177.44 917.22,-186.13 921.31,-180.46"/>
</g>
<!-- 42 -->
<g id="node43" class="node">
<title>42</title>
<ellipse fill="none" stroke="black" cx="988.14" cy="-162" rx="40.09" ry="18"/>
<text text-anchor="middle" x="988.14" y="-158.3" font-family="Times,serif" font-size="14.00">DeclId</text>
</g>
<!-- 40&#45;&gt;42 -->
<g id="edge42" class="edge">
<title>40&#45;&gt;42</title>
<path fill="none" stroke="black" d="M988.14,-215.7C988.14,-207.98 988.14,-198.71 988.14,-190.11"/>
<polygon fill="black" stroke="black" points="991.64,-190.1 988.14,-180.1 984.64,-190.1 991.64,-190.1"/>
</g>
<!-- 43 -->
<g id="node44" class="node">
<title>43</title>
<ellipse fill="none" stroke="black" cx="988.14" cy="-90" rx="27" ry="18"/>
<text text-anchor="middle" x="988.14" y="-86.3" font-family="Times,serif" font-size="14.00">=</text>
</g>
<!-- 42&#45;&gt;43 -->
<g id="edge43" class="edge">
<title>42&#45;&gt;43</title>
<path fill="none" stroke="black" d="M988.14,-143.7C988.14,-135.98 988.14,-126.71 988.14,-118.11"/>
<polygon fill="black" stroke="black" points="991.64,-118.1 988.14,-108.1 984.64,-118.1 991.64,-118.1"/>
</g>
<!-- 44 -->
<g id="node45" class="node">
<title>44</title>
<ellipse fill="none" stroke="black" cx="946.14" cy="-18" rx="27" ry="18"/>
<text text-anchor="middle" x="946.14" y="-14.3" font-family="Times,serif" font-size="14.00">pi</text>
</g>
<!-- 43&#45;&gt;44 -->
<g id="edge44" class="edge">
<title>43&#45;&gt;44</title>
<path fill="none" stroke="black" d="M978.61,-73.12C973.48,-64.56 967.02,-53.8 961.22,-44.13"/>
<polygon fill="black" stroke="black" points="964.08,-42.08 955.93,-35.31 958.07,-45.68 964.08,-42.08"/>
</g>
<!-- 45 -->
<g id="node46" class="node">
<title>45</title>
<ellipse fill="none" stroke="black" cx="1031.14" cy="-18" rx="40.09" ry="18"/>
<text text-anchor="middle" x="1031.14" y="-14.3" font-family="Times,serif" font-size="14.00">&quot;3.14&quot;</text>
</g>
<!-- 43&#45;&gt;45 -->
<g id="edge45" class="edge">
<title>43&#45;&gt;45</title>
<path fill="none" stroke="black" d="M997.9,-73.12C1003.08,-64.68 1009.58,-54.1 1015.45,-44.55"/>
<polygon fill="black" stroke="black" points="1018.57,-46.15 1020.83,-35.8 1012.61,-42.49 1018.57,-46.15"/>
</g>
<!-- 47 -->
<g id="node48" class="node">
<title>47</title>
<ellipse fill="none" stroke="black" cx="1145.14" cy="-234" rx="27" ry="18"/>
<text text-anchor="middle" x="1145.14" y="-230.3" font-family="Times,serif" font-size="14.00">=</text>
</g>
<!-- 46&#45;&gt;47 -->
<g id="edge47" class="edge">
<title>46&#45;&gt;47</title>
<path fill="none" stroke="black" d="M1146.65,-287.7C1146.43,-279.98 1146.17,-270.71 1145.92,-262.11"/>
<polygon fill="black" stroke="black" points="1149.42,-262 1145.63,-252.1 1142.42,-262.2 1149.42,-262"/>
</g>
<!-- 48 -->
<g id="node49" class="node">
<title>48</title>
<ellipse fill="none" stroke="black" cx="1073.14" cy="-162" rx="27" ry="18"/>
<text text-anchor="middle" x="1073.14" y="-158.3" font-family="Times,serif" font-size="14.00">i</text>
</g>
<!-- 47&#45;&gt;48 -->
<g id="edge48" class="edge">
<title>47&#45;&gt;48</title>
<path fill="none" stroke="black" d="M1130.57,-218.83C1120.39,-208.94 1106.62,-195.55 1095.11,-184.36"/>
<polygon fill="black" stroke="black" points="1097.55,-181.85 1087.94,-177.38 1092.67,-186.87 1097.55,-181.85"/>
</g>
<!-- 49 -->
<g id="node50" class="node">
<title>49</title>
<ellipse fill="none" stroke="black" cx="1145.14" cy="-162" rx="27" ry="18"/>
<text text-anchor="middle" x="1145.14" y="-158.3" font-family="Times,serif" font-size="14.00">+</text>
</g>
<!-- 47&#45;&gt;49 -->
<g id="edge49" class="edge">
<title>47&#45;&gt;49</title>
<path fill="none" stroke="black" d="M1145.14,-215.7C1145.14,-207.98 1145.14,-198.71 1145.14,-190.11"/>
<polygon fill="black" stroke="black" points="1148.64,-190.1 1145.14,-180.1 1141.64,-190.1 1148.64,-190.1"/>
</g>
<!-- 50 -->
<g id="node51" class="node">
<title>50</title>
<ellipse fill="none" stroke="black" cx="1109.14" cy="-90" rx="27" ry="18"/>
<text text-anchor="middle" x="1109.14" y="-86.3" font-family="Times,serif" font-size="14.00">i</text>
</g>
<!-- 49&#45;&gt;50 -->
<g id="edge50" class="edge">
<title>49&#45;&gt;50</title>
<path fill="none" stroke="black" d="M1136.8,-144.76C1132.43,-136.28 1127,-125.71 1122.1,-116.2"/>
<polygon fill="black" stroke="black" points="1125.14,-114.44 1117.45,-107.15 1118.91,-117.64 1125.14,-114.44"/>
</g>
<!-- 51 -->
<g id="node52" class="node">
<title>51</title>
<ellipse fill="none" stroke="black" cx="1181.14" cy="-90" rx="27" ry="18"/>
<text text-anchor="middle" x="1181.14" y="-86.3" font-family="Times,serif" font-size="14.00">1</text>
</g>
<!-- 49&#45;&gt;51 -->
<g id="edge51" class="edge">
<title>49&#45;&gt;51</title>
<path fill="none" stroke="black" d="M1153.49,-144.76C1157.86,-136.28 1163.29,-125.71 1168.19,-116.2"/>
<polygon fill="black" stroke="black" points="1171.38,-117.64 1172.84,-107.15 1165.15,-114.44 1171.38,-117.64"/>
</g>
<!-- 53 -->
<g id="node54" class="node">
<title>53</title>
<ellipse fill="none" stroke="black" cx="1286.14" cy="-234" rx="33.29" ry="18"/>
<text text-anchor="middle" x="1286.14" y="-230.3" font-family="Times,serif" font-size="14.00">Emit</text>
</g>
<!-- 52&#45;&gt;53 -->
<g id="edge53" class="edge">
<title>52&#45;&gt;53</title>
<path fill="none" stroke="black" d="M1285.39,-287.7C1285.5,-279.98 1285.63,-270.71 1285.76,-262.11"/>
<polygon fill="black" stroke="black" points="1289.26,-262.15 1285.9,-252.1 1282.26,-262.05 1289.26,-262.15"/>
</g>
<!-- 54 -->
<g id="node55" class="node">
<title>54</title>
<ellipse fill="none" stroke="black" cx="1217.14" cy="-162" rx="27" ry="18"/>
<text text-anchor="middle" x="1217.14" y="-158.3" font-family="Times,serif" font-size="14.00">pi</text>
</g>
<!-- 53&#45;&gt;54 -->
<g id="edge54" class="edge">
<title>53&#45;&gt;54</title>
<path fill="none" stroke="black" d="M1271.17,-217.81C1261.73,-208.23 1249.38,-195.7 1238.87,-185.04"/>
<polygon fill="black" stroke="black" points="1241.13,-182.34 1231.61,-177.68 1236.14,-187.26 1241.13,-182.34"/>
</g>
<!-- 55 -->
<g id="node56" class="node">
<title>55</title>
<ellipse fill="none" stroke="black" cx="1289.14" cy="-162" rx="27" ry="18"/>
<text text-anchor="middle" x="1289.14" y="-158.3" font-family="Times,serif" font-size="14.00">0</text>
</g>
<!-- 53&#45;&gt;55 -->
<g id="edge55" class="edge">
<title>53&#45;&gt;55</title>
<path fill="none" stroke="black" d="M1286.89,-215.7C1287.22,-207.98 1287.61,-198.71 1287.98,-190.11"/>
<polygon fill="black" stroke="black" points="1291.48,-190.25 1288.41,-180.1 1284.49,-189.95 1291.48,-190.25"/>
</g>
<!-- 56 -->
<g id="node57" class="node">
<title>56</title>
<ellipse fill="none" stroke="black" cx="1361.14" cy="-162" rx="27" ry="18"/>
<text text-anchor="middle" x="1361.14" y="-158.3" font-family="Times,serif" font-size="14.00">4</text>
</g>
<!-- 53&#45;&gt;56 -->
<g id="edge56" class="edge">
<title>53&#45;&gt;56</title>
<path fill="none" stroke="black" d="M1302.05,-218.15C1312.7,-208.21 1326.88,-194.98 1338.68,-183.97"/>
<polygon fill="black" stroke="black" points="1341.11,-186.49 1346.03,-177.11 1336.33,-181.37 1341.11,-186.49"/>
</g>
<!-- 58 -->
<g id="node59" class="node">
<title>58</title>
<ellipse fill="none" stroke="black" cx="1505.14" cy="-234" rx="27" ry="18"/>
<text text-anchor="middle" x="1505.14" y="-230.3" font-family="Times,serif" font-size="14.00">=</text>
</g>
<!-- 57&#45;&gt;58 -->
<g id="edge58" class="edge">
<title>57&#45;&gt;58</title>
<path fill="none" stroke="black" d="M1442.16,-288.76C1453.88,-278.76 1469.01,-265.85 1481.5,-255.19"/>
<polygon fill="black" stroke="black" points="1483.93,-257.71 1489.26,-248.56 1479.38,-252.39 1483.93,-257.71"/>
</g>
<!-- 59 -->
<g id="node60" class="node">
<title>59</title>
<ellipse fill="none" stroke="black" cx="1433.14" cy="-162" rx="27" ry="18"/>
<text text-anchor="middle" x="1433.14" y="-158.3" font-family="Times,serif" font-size="14.00">k</text>
</g>
<!-- 58&#45;&gt;59 -->
<g id="edge59" class="edge">
<title>58&#45;&gt;59</title>
<path fill="none" stroke="black" d="M1490.57,-218.83C1480.39,-208.94 1466.62,-195.55 1455.11,-184.36"/>
<polygon fill="black" stroke="black" points="1457.55,-181.85 1447.94,-177.38 1452.67,-186.87 1457.55,-181.85"/>
</g>
<!-- 60 -->
<g id="node61" class="node">
<title>60</title>
<ellipse fill="none" stroke="black" cx="1505.14" cy="-162" rx="27" ry="18"/>
<text text-anchor="middle" x="1505.14" y="-158.3" font-family="Times,serif" font-size="14.00">i</text>
</g>
<!-- 58&#45;&gt;60 -->
<g id="edge60" class="edge">
<title>58&#45;&gt;60</title>
<path fill="none" stroke="black" d="M1505.14,-215.7C1505.14,-207.98 1505.14,-198.71 1505.14,-190.11"/>
<polygon fill="black" stroke="black" points="1508.64,-190.1 1505.14,-180.1 1501.64,-190.1 1508.64,-190.1"/>
</g>
<!-- 61 -->
<g id="node62" class="node">
<title>61</title>
<ellipse fill="none" stroke="black" cx="1577.14" cy="-162" rx="27" ry="18"/>
<text text-anchor="middle" x="1577.14" y="-158.3" font-family="Times,serif" font-size="14.00">x</text>
</g>
<!-- 58&#45;&gt;61 -->
<g id="edge61" class="edge">
<title>58&#45;&gt;61</title>
<path fill="none" stroke="black" d="M1519.72,-218.83C1529.89,-208.94 1543.67,-195.55 1555.18,-184.36"/>
<polygon fill="black" stroke="black" points="1557.62,-186.87 1562.35,-177.38 1552.74,-181.85 1557.62,-186.87"/>
</g>
<!-- 62 -->
<g id="node63" class="node">
<title>62</title>
<ellipse fill="none" stroke="black" cx="1649.14" cy="-162" rx="27" ry="18"/>
<text text-anchor="middle" x="1649.14" y="-158.3" font-family="Times,serif" font-size="14.00">j</text>
</g>
<!-- 58&#45;&gt;62 -->
<g id="edge62" class="edge">
<title>58&#45;&gt;62</title>
<path fill="none" stroke="black" d="M1526.39,-222.67C1550.75,-210.83 1590.86,-191.33 1618.57,-177.86"/>
<polygon fill="black" stroke="black" points="1620.35,-180.89 1627.81,-173.37 1617.29,-174.6 1620.35,-180.89"/>
</g>
<!-- 64 -->
<g id="node65" class="node">
<title>64</title>
<ellipse fill="none" stroke="black" cx="1309.14" cy="-522" rx="27" ry="18"/>
<text text-anchor="middle" x="1309.14" y="-518.3" font-family="Times,serif" font-size="14.00">=</text>
</g>
<!-- 63&#45;&gt;64 -->
<g id="edge64" class="edge">
<title>63&#45;&gt;64</title>
<path fill="none" stroke="black" d="M1056.66,-581.94C1064.8,-579.94 1073.23,-577.9 1081.14,-576 1149.34,-559.67 1229.19,-541.28 1274,-531.02"/>
<polygon fill="black" stroke="black" points="1274.85,-534.42 1283.81,-528.77 1273.29,-527.59 1274.85,-534.42"/>
</g>
<!-- 65 -->
<g id="node66" class="node">
<title>65</title>
<ellipse fill="none" stroke="black" cx="1309.14" cy="-450" rx="27" ry="18"/>
<text text-anchor="middle" x="1309.14" y="-446.3" font-family="Times,serif" font-size="14.00">x</text>
</g>
<!-- 64&#45;&gt;65 -->
<g id="edge65" class="edge">
<title>64&#45;&gt;65</title>
<path fill="none" stroke="black" d="M1309.14,-503.7C1309.14,-495.98 1309.14,-486.71 1309.14,-478.11"/>
<polygon fill="black" stroke="black" points="1312.64,-478.1 1309.14,-468.1 1305.64,-478.1 1312.64,-478.1"/>
</g>
<!-- 66 -->
<g id="node67" class="node">
<title>66</title>
<ellipse fill="none" stroke="black" cx="1449.14" cy="-450" rx="27" ry="18"/>
<text text-anchor="middle" x="1449.14" y="-446.3" font-family="Times,serif" font-size="14.00">+</text>
</g>
<!-- 64&#45;&gt;66 -->
<g id="edge66" class="edge">
<title>64&#45;&gt;66</title>
<path fill="none" stroke="black" d="M1330.1,-510.52C1353.71,-498.72 1392.28,-479.43 1419.09,-466.03"/>
<polygon fill="black" stroke="black" points="1420.66,-469.15 1428.04,-461.55 1417.53,-462.89 1420.66,-469.15"/>
</g>
<!-- 67 -->
<g id="node68" class="node">
<title>67</title>
<ellipse fill="none" stroke="black" cx="1528.14" cy="-378" rx="27" ry="18"/>
<text text-anchor="middle" x="1528.14" y="-374.3" font-family="Times,serif" font-size="14.00">+</text>
</g>
<!-- 66&#45;&gt;67 -->
<g id="edge67" class="edge">
<title>66&#45;&gt;67</title>
<path fill="none" stroke="black" d="M1464.75,-435.17C1476.22,-425.01 1492,-411.03 1504.94,-399.56"/>
<polygon fill="black" stroke="black" points="1507.41,-402.05 1512.57,-392.8 1502.76,-396.81 1507.41,-402.05"/>
</g>
<!-- 70 -->
<g id="node71" class="node">
<title>70</title>
<ellipse fill="none" stroke="black" cx="1672.14" cy="-378" rx="31.7" ry="18"/>
<text text-anchor="middle" x="1672.14" y="-374.3" font-family="Times,serif" font-size="14.00">Cast</text>
</g>
<!-- 66&#45;&gt;70 -->
<g id="edge70" class="edge">
<title>66&#45;&gt;70</title>
<path fill="none" stroke="black" d="M1470.21,-438.34C1475.05,-436.09 1480.23,-433.84 1485.14,-432 1535.11,-413.27 1594.7,-397.46 1632.96,-388.1"/>
<polygon fill="black" stroke="black" points="1634.26,-391.39 1643.16,-385.64 1632.62,-384.58 1634.26,-391.39"/>
</g>
<!-- 68 -->
<g id="node69" class="node">
<title>68</title>
<ellipse fill="none" stroke="black" cx="1528.14" cy="-306" rx="27" ry="18"/>
<text text-anchor="middle" x="1528.14" y="-302.3" font-family="Times,serif" font-size="14.00">i</text>
</g>
<!-- 67&#45;&gt;68 -->
<g id="edge68" class="edge">
<title>67&#45;&gt;68</title>
<path fill="none" stroke="black" d="M1528.14,-359.7C1528.14,-351.98 1528.14,-342.71 1528.14,-334.11"/>
<polygon fill="black" stroke="black" points="1531.64,-334.1 1528.14,-324.1 1524.64,-334.1 1531.64,-334.1"/>
</g>
<!-- 69 -->
<g id="node70" class="node">
<title>69</title>
<ellipse fill="none" stroke="black" cx="1600.14" cy="-306" rx="27" ry="18"/>
<text text-anchor="middle" x="1600.14" y="-302.3" font-family="Times,serif" font-size="14.00">x</text>
</g>
<!-- 67&#45;&gt;69 -->
<g id="edge69" class="edge">
<title>67&#45;&gt;69</title>
<path fill="none" stroke="black" d="M1542.72,-362.83C1552.89,-352.94 1566.67,-339.55 1578.18,-328.36"/>
<polygon fill="black" stroke="black" points="1580.62,-330.87 1585.35,-321.38 1575.74,-325.85 1580.62,-330.87"/>
</g>
<!-- 71 -->
<g id="node72" class="node">
<title>71</title>
<ellipse fill="none" stroke="black" cx="1672.14" cy="-306" rx="27" ry="18"/>
<text text-anchor="middle" x="1672.14" y="-302.3" font-family="Times,serif" font-size="14.00">int</text>
</g>
<!-- 70&#45;&gt;71 -->
<g id="edge71" class="edge">
<title>70&#45;&gt;71</title>
<path fill="none" stroke="black" d="M1672.14,-359.7C1672.14,-351.98 1672.14,-342.71 1672.14,-334.11"/>
<polygon fill="black" stroke="black" points="1675.64,-334.1 1672.14,-324.1 1668.64,-334.1 1675.64,-334.1"/>
</g>
<!-- 72 -->
<g id="node73" class="node">
<title>72</title>
<ellipse fill="none" stroke="black" cx="1744.14" cy="-306" rx="27" ry="18"/>
<text text-anchor="middle" x="1744.14" y="-302.3" font-family="Times,serif" font-size="14.00">pi</text>
</g>
<!-- 70&#45;&gt;72 -->
<g id="edge72" class="edge">
<title>70&#45;&gt;72</title>
<path fill="none" stroke="black" d="M1687.41,-362.15C1697.48,-352.37 1710.82,-339.4 1722.03,-328.5"/>
<polygon fill="black" stroke="black" points="1724.66,-330.83 1729.39,-321.35 1719.78,-325.81 1724.66,-330.83"/>
</g>
<!-- 74 -->
<g id="node75" class="node">
<title>74</title>
<ellipse fill="none" stroke="black" cx="1521.14" cy="-522" rx="27" ry="18"/>
<text text-anchor="middle" x="1521.14" y="-518.3" font-family="Times,serif" font-size="14.00">=</text>
</g>
<!-- 73&#45;&gt;74 -->
<g id="edge74" class="edge">
<title>73&#45;&gt;74</title>
<path fill="none" stroke="black" d="M1193.93,-581.56C1201.96,-579.6 1210.29,-577.67 1218.14,-576 1314.04,-555.65 1428.21,-537.23 1485.14,-528.44"/>
<polygon fill="black" stroke="black" points="1485.73,-531.89 1495.08,-526.91 1484.67,-524.97 1485.73,-531.89"/>
</g>
<!-- 75 -->
<g id="node76" class="node">
<title>75</title>
<ellipse fill="none" stroke="black" cx="1521.14" cy="-450" rx="27" ry="18"/>
<text text-anchor="middle" x="1521.14" y="-446.3" font-family="Times,serif" font-size="14.00">pi</text>
</g>
<!-- 74&#45;&gt;75 -->
<g id="edge75" class="edge">
<title>74&#45;&gt;75</title>
<path fill="none" stroke="black" d="M1521.14,-503.7C1521.14,-495.98 1521.14,-486.71 1521.14,-478.11"/>
<polygon fill="black" stroke="black" points="1524.64,-478.1 1521.14,-468.1 1517.64,-478.1 1524.64,-478.1"/>
</g>
<!-- 76 -->
<g id="node77" class="node">
<title>76</title>
<ellipse fill="none" stroke="black" cx="1615.14" cy="-450" rx="48.99" ry="18"/>
<text text-anchor="middle" x="1615.14" y="-446.3" font-family="Times,serif" font-size="14.00">3.14159</text>
</g>
<!-- 74&#45;&gt;76 -->
<g id="edge76" class="edge">
<title>74&#45;&gt;76</title>
<path fill="none" stroke="black" d="M1538.83,-507.83C1552.11,-497.94 1570.59,-484.18 1586.04,-472.67"/>
<polygon fill="black" stroke="black" points="1588.33,-475.33 1594.26,-466.55 1584.15,-469.72 1588.33,-475.33"/>
</g>
</g>
</svg>