<?xml version="1.0" encoding="UTF-8" standalone="no"?>
<!DOCTYPE svg PUBLIC "-//W3C//DTD SVG 1.1//EN"
 "http://www.w3.org/Graphics/SVG/1.1/DTD/svg11.dtd">
<!-- Generated by graphviz version 2.44.0 (20200408.0750)
 -->
<!-- Pages: 1 -->
<svg width="1680pt" height="620pt"
 viewBox="0.00 0.00 1680.00 620.00" xmlns="http://www.w3.org/2000/svg" xmlns:xlink="http://www.w3.org/1999/xlink">
<g id="graph0" class="graph" transform="scale(1 1) rotate(0) translate(4 616)">
<polygon fill="white" stroke="transparent" points="-4,4 -4,-616 1676,-616 1676,4 -4,4"/>
<!-- 0 -->
<g id="node1" class="node">
<title>0</title>
<ellipse fill="none" stroke="black" cx="850" cy="-594" rx="41.69" ry="18"/>
<text text-anchor="middle" x="850" y="-590.3" font-family="Times,serif" font-size="14.00">Program</text>
</g>
<!-- 1 -->
<g id="node2" class="node">
<title>1</title>
<ellipse fill="none" stroke="black" cx="113" cy="-522" rx="46.29" ry="18"/>
<text text-anchor="middle" x="113" y="-518.3" font-family="Times,serif" font-size="14.00">Statement</text>
</g>
<!-- 0&#45;&gt;1 -->
<g id="edge1" class="edge">
<title>0&#45;&gt;1</title>
<path fill="none" stroke="black" d="M809.4,-589.56C714.58,-581.48 471.17,-560.39 268,-540 234.39,-536.63 196.71,-532.5 166.93,-529.16"/>
<polygon fill="black" stroke="black" points="167.07,-525.66 156.74,-528.01 166.28,-532.61 167.07,-525.66"/>
</g>
<!-- 10 -->
<g id="node11" class="node">
<title>10</title>
<ellipse fill="none" stroke="black" cx="323" cy="-522" rx="46.29" ry="18"/>
<text text-anchor="middle" x="323" y="-518.3" font-family="Times,serif" font-size="14.00">Statement</text>
</g>
<!-- 0&#45;&gt;10 -->
<g id="edge10" class="edge">
<title>0&#45;&gt;10</title>
<path fill="none" stroke="black" d="M810.37,-588.5C735.54,-579.9 568.33,-560.17 428,-540 410.59,-537.5 391.61,-534.51 374.62,-531.73"/>
<polygon fill="black" stroke="black" points="374.78,-528.21 364.34,-530.04 373.64,-535.12 374.78,-528.21"/>
</g>
<!-- 19 -->
<g id="node20" class="node">
<title>19</title>
<ellipse fill="none" stroke="black" cx="483" cy="-522" rx="46.29" ry="18"/>
<text text-anchor="middle" x="483" y="-518.3" font-family="Times,serif" font-size="14.00">Statement</text>
</g>
<!-- 0&#45;&gt;19 -->
<g id="edge19" class="edge">
<title>0&#45;&gt;19</title>
<path fill="none" stroke="black" d="M811.87,-586.29C756.83,-576.54 651.96,-557.66 563,-540 553.08,-538.03 542.48,-535.84 532.35,-533.7"/>
<polygon fill="black" stroke="black" points="532.94,-530.25 522.43,-531.6 531.48,-537.1 532.94,-530.25"/>
</g>
<!-- 28 -->
<g id="node29" class="node">
<title>28</title>
<ellipse fill="none" stroke="black" cx="618" cy="-522" rx="46.29" ry="18"/>
<text text-anchor="middle" x="618" y="-518.3" font-family="Times,serif" font-size="14.00">Statement</text>
</g>
<!-- 0&#45;&gt;28 -->
<g id="edge28" class="edge">
<title>0&#45;&gt;28</title>
<path fill="none" stroke="black" d="M816.76,-582.97C776.46,-570.81 708.34,-550.26 663.27,-536.66"/>
<polygon fill="black" stroke="black" points="664.05,-533.24 653.46,-533.7 662.02,-539.94 664.05,-533.24"/>
</g>
<!-- 37 -->
<g id="node38" class="node">
<title>37</title>
<ellipse fill="none" stroke="black" cx="740" cy="-522" rx="46.29" ry="18"/>
<text text-anchor="middle" x="740" y="-518.3" font-family="Times,serif" font-size="14.00">Statement</text>
</g>
<!-- 0&#45;&gt;37 -->
<g id="edge37" class="edge">
<title>0&#45;&gt;37</title>
<path fill="none" stroke="black" d="M827.47,-578.67C811.52,-568.52 789.9,-554.75 772.14,-543.45"/>
<polygon fill="black" stroke="black" points="773.57,-540.21 763.25,-537.8 769.81,-546.12 773.57,-540.21"/>
</g>
<!-- 46 -->
<g id="node47" class="node">
<title>46</title>
<ellipse fill="none" stroke="black" cx="850" cy="-522" rx="46.29" ry="18"/>
<text text-anchor="middle" x="850" y="-518.3" font-family="Times,serif" font-size="14.00">Statement</text>
</g>
<!-- 0&#45;&gt;46 -->
<g id="edge46" class="edge">
<title>0&#45;&gt;46</title>
<path fill="none" stroke="black" d="M850,-575.7C850,-567.98 850,-558.71 850,-550.11"/>
<polygon fill="black" stroke="black" points="853.5,-550.1 850,-540.1 846.5,-550.1 853.5,-550.1"/>
</g>
<!-- 55 -->
<g id="node56" class="node">
<title>55</title>
<ellipse fill="none" stroke="black" cx="960" cy="-522" rx="46.29" ry="18"/>
<text text-anchor="middle" x="960" y="-518.3" font-family="Times,serif" font-size="14.00">Statement</text>
</g>
<!-- 0&#45;&gt;55 -->
<g id="edge55" class="edge">
<title>0&#45;&gt;55</title>
<path fill="none" stroke="black" d="M872.53,-578.67C888.48,-568.52 910.1,-554.75 927.86,-543.45"/>
<polygon fill="black" stroke="black" points="930.19,-546.12 936.75,-537.8 926.43,-540.21 930.19,-546.12"/>
</g>
<!-- 71 -->
<g id="node72" class="node">
<title>71</title>
<ellipse fill="none" stroke="black" cx="1070" cy="-522" rx="46.29" ry="18"/>
<text text-anchor="middle" x="1070" y="-518.3" font-family="Times,serif" font-size="14.00">Statement</text>
</g>
<!-- 0&#45;&gt;71 -->
<g id="edge71" class="edge">
<title>0&#45;&gt;71</title>
<path fill="none" stroke="black" d="M882.46,-582.67C920.31,-570.63 983.06,-550.66 1025.45,-537.18"/>
<polygon fill="black" stroke="black" points="1026.76,-540.43 1035.22,-534.07 1024.63,-533.76 1026.76,-540.43"/>
</g>
<!-- 76 -->
<g id="node77" class="node">
<title>76</title>
<ellipse fill="none" stroke="black" cx="1180" cy="-522" rx="46.29" ry="18"/>
<text text-anchor="middle" x="1180" y="-518.3" font-family="Times,serif" font-size="14.00">Statement</text>
</g>
<!-- 0&#45;&gt;76 -->
<g id="edge76" class="edge">
<title>0&#45;&gt;76</title>
<path fill="none" stroke="black" d="M888.55,-586.94C942.01,-578.22 1041.51,-560.88 1125,-540 1128.61,-539.1 1132.32,-538.1 1136.05,-537.05"/>
<polygon fill="black" stroke="black" points="1137.22,-540.36 1145.84,-534.19 1135.26,-533.64 1137.22,-540.36"/>
</g>
<!-- 81 -->
<g id="node82" class="node">
<title>81</title>
<ellipse fill="none" stroke="black" cx="1290" cy="-522" rx="46.29" ry="18"/>
<text text-anchor="middle" x="1290" y="-518.3" font-family="Times,serif" font-size="14.00">Statement</text>
</g>
<!-- 0&#45;&gt;81 -->
<g id="edge81" class="edge">
<title>0&#45;&gt;81</title>
<path fill="none" stroke="black" d="M890.57,-589.61C961.18,-583.22 1111,-567.51 1235,-540 1238.68,-539.18 1242.47,-538.24 1246.26,-537.22"/>
<polygon fill="black" stroke="black" points="1247.54,-540.5 1256.2,-534.39 1245.62,-533.76 1247.54,-540.5"/>
</g>
<!-- 90 -->
<g id="node91" class="node">
<title>90</title>
<ellipse fill="none" stroke="black" cx="1381" cy="-522" rx="27" ry="18"/>
<text text-anchor="middle" x="1381" y="-518.3" font-family="Times,serif" font-size="14.00">EOI</text>
</g>
<!-- 0&#45;&gt;90 -->
<g id="edge90" class="edge">
<title>0&#45;&gt;90</title>
<path fill="none" stroke="black" d="M891.62,-593.18C977.87,-592.56 1181.71,-585.88 1345,-540 1346.95,-539.45 1348.92,-538.81 1350.88,-538.1"/>
<polygon fill="black" stroke="black" points="1352.62,-541.17 1360.52,-534.11 1349.94,-534.7 1352.62,-541.17"/>
</g>
<!-- 2 -->
<g id="node3" class="node">
<title>2</title>
<ellipse fill="none" stroke="black" cx="106" cy="-450" rx="38.19" ry="18"/>
<text text-anchor="middle" x="106" y="-446.3" font-family="Times,serif" font-size="14.00">DecList</text>
</g>
<!-- 1&#45;&gt;2 -->
<g id="edge2" class="edge">
<title>1&#45;&gt;2</title>
<path fill="none" stroke="black" d="M111.27,-503.7C110.5,-495.98 109.57,-486.71 108.71,-478.11"/>
<polygon fill="black" stroke="black" points="112.19,-477.71 107.71,-468.1 105.22,-478.4 112.19,-477.71"/>
</g>
<!-- 3 -->
<g id="node4" class="node">
<title>3</title>
<ellipse fill="none" stroke="black" cx="27" cy="-378" rx="27" ry="18"/>
<text text-anchor="middle" x="27" y="-374.3" font-family="Times,serif" font-size="14.00">int</text>
</g>
<!-- 2&#45;&gt;3 -->
<g id="edge3" class="edge">
<title>2&#45;&gt;3</title>
<path fill="none" stroke="black" d="M88.86,-433.81C77.62,-423.85 62.77,-410.7 50.44,-399.77"/>
<polygon fill="black" stroke="black" points="52.57,-396.98 42.77,-392.97 47.93,-402.22 52.57,-396.98"/>
</g>
<!-- 4 -->
<g id="node5" class="node">
<title>4</title>
<ellipse fill="none" stroke="black" cx="106" cy="-378" rx="34.39" ry="18"/>
<text text-anchor="middle" x="106" y="-374.3" font-family="Times,serif" font-size="14.00">DeclId</text>
</g>
<!-- 2&#45;&gt;4 -->
<g id="edge4" class="edge">
<title>2&#45;&gt;4</title>
<path fill="none" stroke="black" d="M106,-431.7C106,-423.98 106,-414.71 106,-406.11"/>
<polygon fill="black" stroke="black" points="109.5,-406.1 106,-396.1 102.5,-406.1 109.5,-406.1"/>
</g>
<!-- 5 -->
<g id="node6" class="node">
<title>5</title>
<ellipse fill="none" stroke="black" cx="106" cy="-306" rx="27" ry="18"/>
<text text-anchor="middle" x="106" y="-302.3" font-family="Times,serif" font-size="14.00">=</text>
</g>
<!-- 4&#45;&gt;5 -->
<g id="edge5" class="edge">
<title>4&#45;&gt;5</title>
<path fill="none" stroke="black" d="M106,-359.7C106,-351.98 106,-342.71 106,-334.11"/>
<polygon fill="black" stroke="black" points="109.5,-334.1 106,-324.1 102.5,-334.1 109.5,-334.1"/>
</g>
<!-- 6 -->
<g id="node7" class="node">
<title>6</title>
<ellipse fill="none" stroke="black" cx="36" cy="-234" rx="27" ry="18"/>
<text text-anchor="middle" x="36" y="-230.3" font-family="Times,serif" font-size="14.00">x</text>
</g>
<!-- 5&#45;&gt;6 -->
<g id="edge6" class="edge">
<title>5&#45;&gt;6</title>
<path fill="none" stroke="black" d="M91.5,-290.5C81.73,-280.73 68.69,-267.69 57.7,-256.7"/>
<polygon fill="black" stroke="black" points="60.03,-254.08 50.49,-249.49 55.08,-259.03 60.03,-254.08"/>
</g>
<!-- 7 -->
<g id="node8" class="node">
<title>7</title>
<ellipse fill="none" stroke="black" cx="108" cy="-234" rx="27" ry="18"/>
<text text-anchor="middle" x="108" y="-230.3" font-family="Times,serif" font-size="14.00">+</text>
</g>
<!-- 5&#45;&gt;7 -->
<g id="edge7" class="edge">
<title>5&#45;&gt;7</title>
<path fill="none" stroke="black" d="M106.49,-287.7C106.71,-279.98 106.98,-270.71 107.23,-262.11"/>
<polygon fill="black" stroke="black" points="110.72,-262.2 107.51,-252.1 103.73,-262 110.72,-262.2"/>
</g>
<!-- 8 -->
<g id="node9" class="node">
<title>8</title>
<ellipse fill="none" stroke="black" cx="39" cy="-162" rx="27" ry="18"/>
<text text-anchor="middle" x="39" y="-158.3" font-family="Times,serif" font-size="14.00">&quot;3&quot;</text>
</g>
<!-- 7&#45;&gt;8 -->
<g id="edge8" class="edge">
<title>7&#45;&gt;8</title>
<path fill="none" stroke="black" d="M93.7,-218.5C84.08,-208.73 71.22,-195.69 60.39,-184.7"/>
<polygon fill="black" stroke="black" points="62.79,-182.15 53.28,-177.49 57.81,-187.06 62.79,-182.15"/>
</g>
<!-- 9 -->
<g id="node10" class="node">
<title>9</title>
<ellipse fill="none" stroke="black" cx="111" cy="-162" rx="27" ry="18"/>
<text text-anchor="middle" x="111" y="-158.3" font-family="Times,serif" font-size="14.00">2</text>
</g>
<!-- 7&#45;&gt;9 -->
<g id="edge9" class="edge">
<title>7&#45;&gt;9</title>
<path fill="none" stroke="black" d="M108.74,-215.7C109.07,-207.98 109.47,-198.71 109.84,-190.11"/>
<polygon fill="black" stroke="black" points="113.34,-190.25 110.27,-180.1 106.34,-189.95 113.34,-190.25"/>
</g>
<!-- 11 -->
<g id="node12" class="node">
<title>11</title>
<ellipse fill="none" stroke="black" cx="264" cy="-450" rx="38.19" ry="18"/>
<text text-anchor="middle" x="264" y="-446.3" font-family="Times,serif" font-size="14.00">DecList</text>
</g>
<!-- 10&#45;&gt;11 -->
<g id="edge11" class="edge">
<title>10&#45;&gt;11</title>
<path fill="none" stroke="black" d="M309.32,-504.76C301.87,-495.93 292.51,-484.83 284.24,-475.01"/>
<polygon fill="black" stroke="black" points="286.73,-472.54 277.61,-467.15 281.38,-477.05 286.73,-472.54"/>
</g>
<!-- 12 -->
<g id="node13" class="node">
<title>12</title>
<ellipse fill="none" stroke="black" cx="185" cy="-378" rx="27" ry="18"/>
<text text-anchor="middle" x="185" y="-374.3" font-family="Times,serif" font-size="14.00">int</text>
</g>
<!-- 11&#45;&gt;12 -->
<g id="edge12" class="edge">
<title>11&#45;&gt;12</title>
<path fill="none" stroke="black" d="M246.86,-433.81C235.62,-423.85 220.77,-410.7 208.44,-399.77"/>
<polygon fill="black" stroke="black" points="210.57,-396.98 200.77,-392.97 205.93,-402.22 210.57,-396.98"/>
</g>
<!-- 13 -->
<g id="node14" class="node">
<title>13</title>
<ellipse fill="none" stroke="black" cx="264" cy="-378" rx="34.39" ry="18"/>
<text text-anchor="middle" x="264" y="-374.3" font-family="Times,serif" font-size="14.00">DeclId</text>
</g>
<!-- 11&#45;&gt;13 -->
<g id="edge13" class="edge">
<title>11&#45;&gt;13</title>
<path fill="none" stroke="black" d="M264,-431.7C264,-423.98 264,-414.71 264,-406.11"/>
<polygon fill="black" stroke="black" points="267.5,-406.1 264,-396.1 260.5,-406.1 267.5,-406.1"/>
</g>
<!-- 14 -->
<g id="node15" class="node">
<title>14</title>
<ellipse fill="none" stroke="black" cx="264" cy="-306" rx="27" ry="18"/>
<text text-anchor="middle" x="264" y="-302.3" font-family="Times,serif" font-size="14.00">=</text>
</g>
<!-- 13&#45;&gt;14 -->
<g id="edge14" class="edge">
<title>13&#45;&gt;14</title>
<path fill="none" stroke="black" d="M264,-359.7C264,-351.98 264,-342.71 264,-334.11"/>
<polygon fill="black" stroke="black" points="267.5,-334.1 264,-324.1 260.5,-334.1 267.5,-334.1"/>
</g>
<!-- 15 -->
<g id="node16" class="node">
<title>15</title>
<ellipse fill="none" stroke="black" cx="197" cy="-234" rx="27" ry="18"/>
<text text-anchor="middle" x="197" y="-230.3" font-family="Times,serif" font-size="14.00">m</text>
</g>
<!-- 14&#45;&gt;15 -->
<g id="edge15" class="edge">
<title>14&#45;&gt;15</title>
<path fill="none" stroke="black" d="M250.12,-290.5C240.86,-280.83 228.53,-267.94 218.07,-257.02"/>
<polygon fill="black" stroke="black" points="220.31,-254.29 210.86,-249.49 215.25,-259.13 220.31,-254.29"/>
</g>
<!-- 16 -->
<g id="node17" class="node">
<title>16</title>
<ellipse fill="none" stroke="black" cx="275" cy="-234" rx="33.29" ry="18"/>
<text text-anchor="middle" x="275" y="-230.3" font-family="Times,serif" font-size="14.00">Times</text>
</g>
<!-- 14&#45;&gt;16 -->
<g id="edge16" class="edge">
<title>14&#45;&gt;16</title>
<path fill="none" stroke="black" d="M266.66,-288.05C267.87,-280.35 269.34,-271.03 270.7,-262.36"/>
<polygon fill="black" stroke="black" points="274.19,-262.7 272.29,-252.28 267.28,-261.61 274.19,-262.7"/>
</g>
<!-- 17 -->
<g id="node18" class="node">
<title>17</title>
<ellipse fill="none" stroke="black" cx="214" cy="-162" rx="27" ry="18"/>
<text text-anchor="middle" x="214" y="-158.3" font-family="Times,serif" font-size="14.00">2.3</text>
</g>
<!-- 16&#45;&gt;17 -->
<g id="edge17" class="edge">
<title>16&#45;&gt;17</title>
<path fill="none" stroke="black" d="M261.46,-217.46C253.29,-208.09 242.75,-195.99 233.67,-185.57"/>
<polygon fill="black" stroke="black" points="236.29,-183.25 227.08,-178.01 231.01,-187.85 236.29,-183.25"/>
</g>
<!-- 18 -->
<g id="node19" class="node">
<title>18</title>
<ellipse fill="none" stroke="black" cx="286" cy="-162" rx="27" ry="18"/>
<text text-anchor="middle" x="286" y="-158.3" font-family="Times,serif" font-size="14.00">2</text>
</g>
<!-- 16&#45;&gt;18 -->
<g id="edge18" class="edge">
<title>16&#45;&gt;18</title>
<path fill="none" stroke="black" d="M277.66,-216.05C278.87,-208.35 280.34,-199.03 281.7,-190.36"/>
<polygon fill="black" stroke="black" points="285.19,-190.7 283.29,-180.28 278.28,-189.61 285.19,-190.7"/>
</g>
<!-- 20 -->
<g id="node21" class="node">
<title>20</title>
<ellipse fill="none" stroke="black" cx="430" cy="-450" rx="38.19" ry="18"/>
<text text-anchor="middle" x="430" y="-446.3" font-family="Times,serif" font-size="14.00">DecList</text>
</g>
<!-- 19&#45;&gt;20 -->
<g id="edge20" class="edge">
<title>19&#45;&gt;20</title>
<path fill="none" stroke="black" d="M470.44,-504.41C463.91,-495.78 455.79,-485.06 448.55,-475.5"/>
<polygon fill="black" stroke="black" points="451.3,-473.33 442.47,-467.47 445.72,-477.56 451.3,-473.33"/>
</g>
<!-- 21 -->
<g id="node22" class="node">
<title>21</title>
<ellipse fill="none" stroke="black" cx="347" cy="-378" rx="30.59" ry="18"/>
<text text-anchor="middle" x="347" y="-374.3" font-family="Times,serif" font-size="14.00">string</text>
</g>
<!-- 20&#45;&gt;21 -->
<g id="edge21" class="edge">
<title>20&#45;&gt;21</title>
<path fill="none" stroke="black" d="M411.99,-433.81C400.15,-423.82 384.49,-410.62 371.52,-399.68"/>
<polygon fill="black" stroke="black" points="373.74,-396.98 363.84,-393.21 369.23,-402.33 373.74,-396.98"/>
</g>
<!-- 22 -->
<g id="node23" class="node">
<title>22</title>
<ellipse fill="none" stroke="black" cx="430" cy="-378" rx="34.39" ry="18"/>
<text text-anchor="middle" x="430" y="-374.3" font-family="Times,serif" font-size="14.00">DeclId</text>
</g>
<!-- 20&#45;&gt;22 -->
<g id="edge22" class="edge">
<title>20&#45;&gt;22</title>
<path fill="none" stroke="black" d="M430,-431.7C430,-423.98 430,-414.71 430,-406.11"/>
<polygon fill="black" stroke="black" points="433.5,-406.1 430,-396.1 426.5,-406.1 433.5,-406.1"/>
</g>
<!-- 23 -->
<g id="node24" class="node">
<title>23</title>
<ellipse fill="none" stroke="black" cx="430" cy="-306" rx="27" ry="18"/>
<text text-anchor="middle" x="430" y="-302.3" font-family="Times,serif" font-size="14.00">=</text>
</g>
<!-- 22&#45;&gt;23 -->
<g id="edge23" class="edge">
<title>22&#45;&gt;23</title>
<path fill="none" stroke="black" d="M430,-359.7C430,-351.98 430,-342.71 430,-334.11"/>
<polygon fill="black" stroke="black" points="433.5,-334.1 430,-324.1 426.5,-334.1 433.5,-334.1"/>
</g>
<!-- 24 -->
<g id="node25" class="node">
<title>24</title>
<ellipse fill="none" stroke="black" cx="362" cy="-234" rx="27" ry="18"/>
<text text-anchor="middle" x="362" y="-230.3" font-family="Times,serif" font-size="14.00">s</text>
</g>
<!-- 23&#45;&gt;24 -->
<g id="edge24" class="edge">
<title>23&#45;&gt;24</title>
<path fill="none" stroke="black" d="M415.91,-290.5C406.43,-280.73 393.76,-267.69 383.08,-256.7"/>
<polygon fill="black" stroke="black" points="385.55,-254.22 376.07,-249.49 380.53,-259.1 385.55,-254.22"/>
</g>
<!-- 25 -->
<g id="node26" class="node">
<title>25</title>
<ellipse fill="none" stroke="black" cx="434" cy="-234" rx="27" ry="18"/>
<text text-anchor="middle" x="434" y="-230.3" font-family="Times,serif" font-size="14.00">+</text>
</g>
<!-- 23&#45;&gt;25 -->
<g id="edge25" class="edge">
<title>23&#45;&gt;25</title>
<path fill="none" stroke="black" d="M430.99,-287.7C431.43,-279.98 431.96,-270.71 432.45,-262.11"/>
<polygon fill="black" stroke="black" points="435.95,-262.29 433.02,-252.1 428.96,-261.89 435.95,-262.29"/>
</g>
<!-- 26 -->
<g id="node27" class="node">
<title>26</title>
<ellipse fill="none" stroke="black" cx="423" cy="-162" rx="79.09" ry="18"/>
<text text-anchor="middle" x="423" y="-158.3" font-family="Times,serif" font-size="14.00">&quot;hello cruel world&quot;</text>
</g>
<!-- 25&#45;&gt;26 -->
<g id="edge26" class="edge">
<title>25&#45;&gt;26</title>
<path fill="none" stroke="black" d="M431.34,-216.05C430.13,-208.35 428.66,-199.03 427.3,-190.36"/>
<polygon fill="black" stroke="black" points="430.72,-189.61 425.71,-180.28 423.81,-190.7 430.72,-189.61"/>
</g>
<!-- 27 -->
<g id="node28" class="node">
<title>27</title>
<ellipse fill="none" stroke="black" cx="561" cy="-162" rx="40.89" ry="18"/>
<text text-anchor="middle" x="561" y="-158.3" font-family="Times,serif" font-size="14.00">&quot; cruel &quot;</text>
</g>
<!-- 25&#45;&gt;27 -->
<g id="edge27" class="edge">
<title>25&#45;&gt;27</title>
<path fill="none" stroke="black" d="M454.12,-221.91C473.76,-211.09 503.99,-194.42 527.3,-181.57"/>
<polygon fill="black" stroke="black" points="529.11,-184.58 536.18,-176.68 525.73,-178.44 529.11,-184.58"/>
</g>
<!-- 29 -->
<g id="node30" class="node">
<title>29</title>
<ellipse fill="none" stroke="black" cx="588" cy="-450" rx="38.19" ry="18"/>
<text text-anchor="middle" x="588" y="-446.3" font-family="Times,serif" font-size="14.00">DecList</text>
</g>
<!-- 28&#45;&gt;29 -->
<g id="edge29" class="edge">
<title>28&#45;&gt;29</title>
<path fill="none" stroke="black" d="M610.74,-504.05C607.27,-495.97 603.05,-486.12 599.19,-477.11"/>
<polygon fill="black" stroke="black" points="602.35,-475.6 595.2,-467.79 595.92,-478.36 602.35,-475.6"/>
</g>
<!-- 30 -->
<g id="node31" class="node">
<title>30</title>
<ellipse fill="none" stroke="black" cx="509" cy="-378" rx="27" ry="18"/>
<text text-anchor="middle" x="509" y="-374.3" font-family="Times,serif" font-size="14.00">bool</text>
</g>
<!-- 29&#45;&gt;30 -->
<g id="edge30" class="edge">
<title>29&#45;&gt;30</title>
<path fill="none" stroke="black" d="M570.86,-433.81C559.62,-423.85 544.77,-410.7 532.44,-399.77"/>
<polygon fill="black" stroke="black" points="534.57,-396.98 524.77,-392.97 529.93,-402.22 534.57,-396.98"/>
</g>
<!-- 31 -->
<g id="node32" class="node">
<title>31</title>
<ellipse fill="none" stroke="black" cx="588" cy="-378" rx="34.39" ry="18"/>
<text text-anchor="middle" x="588" y="-374.3" font-family="Times,serif" font-size="14.00">DeclId</text>
</g>
<!-- 29&#45;&gt;31 -->
<g id="edge31" class="edge">
<title>29&#45;&gt;31</title>
<path fill="none" stroke="black" d="M588,-431.7C588,-423.98 588,-414.71 588,-406.11"/>
<polygon fill="black" stroke="black" points="591.5,-406.1 588,-396.1 584.5,-406.1 591.5,-406.1"/>
</g>
<!-- 32 -->
<g id="node33" class="node">
<title>32</title>
<ellipse fill="none" stroke="black" cx="588" cy="-306" rx="27" ry="18"/>
<text text-anchor="middle" x="588" y="-302.3" font-family="Times,serif" font-size="14.00">=</text>
</g>
<!-- 31&#45;&gt;32 -->
<g id="edge32" class="edge">
<title>31&#45;&gt;32</title>
<path fill="none" stroke="black" d="M588,-359.7C588,-351.98 588,-342.71 588,-334.11"/>
<polygon fill="black" stroke="black" points="591.5,-334.1 588,-324.1 584.5,-334.1 591.5,-334.1"/>
</g>
<!-- 33 -->
<g id="node34" class="node">
<title>33</title>
<ellipse fill="none" stroke="black" cx="581" cy="-234" rx="27" ry="18"/>
<text text-anchor="middle" x="581" y="-230.3" font-family="Times,serif" font-size="14.00">b</text>
</g>
<!-- 32&#45;&gt;33 -->
<g id="edge33" class="edge">
<title>32&#45;&gt;33</title>
<path fill="none" stroke="black" d="M586.27,-287.7C585.5,-279.98 584.57,-270.71 583.71,-262.11"/>
<polygon fill="black" stroke="black" points="587.19,-261.71 582.71,-252.1 580.22,-262.4 587.19,-261.71"/>
</g>
<!-- 34 -->
<g id="node35" class="node">
<title>34</title>
<ellipse fill="none" stroke="black" cx="653" cy="-234" rx="27" ry="18"/>
<text text-anchor="middle" x="653" y="-230.3" font-family="Times,serif" font-size="14.00">&lt;</text>
</g>
<!-- 32&#45;&gt;34 -->
<g id="edge34" class="edge">
<title>32&#45;&gt;34</title>
<path fill="none" stroke="black" d="M601.78,-290.15C610.66,-280.6 622.36,-267.99 632.34,-257.25"/>
<polygon fill="black" stroke="black" points="635,-259.53 639.24,-249.82 629.87,-254.77 635,-259.53"/>
</g>
<!-- 35 -->
<g id="node36" class="node">
<title>35</title>
<ellipse fill="none" stroke="black" cx="650" cy="-162" rx="27" ry="18"/>
<text text-anchor="middle" x="650" y="-158.3" font-family="Times,serif" font-size="14.00">1</text>
</g>
<!-- 34&#45;&gt;35 -->
<g id="edge35" class="edge">
<title>34&#45;&gt;35</title>
<path fill="none" stroke="black" d="M652.26,-215.7C651.93,-207.98 651.53,-198.71 651.16,-190.11"/>
<polygon fill="black" stroke="black" points="654.66,-189.95 650.73,-180.1 647.66,-190.25 654.66,-189.95"/>
</g>
<!-- 36 -->
<g id="node37" class="node">
<title>36</title>
<ellipse fill="none" stroke="black" cx="722" cy="-162" rx="27" ry="18"/>
<text text-anchor="middle" x="722" y="-158.3" font-family="Times,serif" font-size="14.00">0.0</text>
</g>
<!-- 34&#45;&gt;36 -->
<g id="edge36" class="edge">
<title>34&#45;&gt;36</title>
<path fill="none" stroke="black" d="M667.3,-218.5C676.92,-208.73 689.78,-195.69 700.61,-184.7"/>
<polygon fill="black" stroke="black" points="703.19,-187.06 707.72,-177.49 698.21,-182.15 703.19,-187.06"/>
</g>
<!-- 38 -->
<g id="node39" class="node">
<title>38</title>
<ellipse fill="none" stroke="black" cx="740" cy="-450" rx="38.19" ry="18"/>
<text text-anchor="middle" x="740" y="-446.3" font-family="Times,serif" font-size="14.00">DecList</text>
</g>
<!-- 37&#45;&gt;38 -->
<g id="edge38" class="edge">
<title>37&#45;&gt;38</title>
<path fill="none" stroke="black" d="M740,-503.7C740,-495.98 740,-486.71 740,-478.11"/>
<polygon fill="black" stroke="black" points="743.5,-478.1 740,-468.1 736.5,-478.1 743.5,-478.1"/>
</g>
<!-- 39 -->
<g id="node40" class="node">
<title>39</title>
<ellipse fill="none" stroke="black" cx="667" cy="-378" rx="27" ry="18"/>
<text text-anchor="middle" x="667" y="-374.3" font-family="Times,serif" font-size="14.00">bool</text>
</g>
<!-- 38&#45;&gt;39 -->
<g id="edge39" class="edge">
<title>38&#45;&gt;39</title>
<path fill="none" stroke="black" d="M723.8,-433.46C713.7,-423.78 700.55,-411.17 689.45,-400.53"/>
<polygon fill="black" stroke="black" points="691.8,-397.93 682.16,-393.54 686.95,-402.98 691.8,-397.93"/>
</g>
<!-- 40 -->
<g id="node41" class="node">
<title>40</title>
<ellipse fill="none" stroke="black" cx="746" cy="-378" rx="34.39" ry="18"/>
<text text-anchor="middle" x="746" y="-374.3" font-family="Times,serif" font-size="14.00">DeclId</text>
</g>
<!-- 38&#45;&gt;40 -->
<g id="edge40" class="edge">
<title>38&#45;&gt;40</title>
<path fill="none" stroke="black" d="M741.48,-431.7C742.14,-423.98 742.94,-414.71 743.68,-406.11"/>
<polygon fill="black" stroke="black" points="747.17,-406.37 744.53,-396.1 740.19,-405.77 747.17,-406.37"/>
</g>
<!-- 41 -->
<g id="node42" class="node">
<title>41</title>
<ellipse fill="none" stroke="black" cx="746" cy="-306" rx="27" ry="18"/>
<text text-anchor="middle" x="746" y="-302.3" font-family="Times,serif" font-size="14.00">=</text>
</g>
<!-- 40&#45;&gt;41 -->
<g id="edge41" class="edge">
<title>40&#45;&gt;41</title>
<path fill="none" stroke="black" d="M746,-359.7C746,-351.98 746,-342.71 746,-334.11"/>
<polygon fill="black" stroke="black" points="749.5,-334.1 746,-324.1 742.5,-334.1 749.5,-334.1"/>
</g>
<!-- 42 -->
<g id="node43" class="node">
<title>42</title>
<ellipse fill="none" stroke="black" cx="737" cy="-234" rx="27" ry="18"/>
<text text-anchor="middle" x="737" y="-230.3" font-family="Times,serif" font-size="14.00">p</text>
</g>
<!-- 41&#45;&gt;42 -->
<g id="edge42" class="edge">
<title>41&#45;&gt;42</title>
<path fill="none" stroke="black" d="M743.82,-288.05C742.83,-280.35 741.63,-271.03 740.52,-262.36"/>
<polygon fill="black" stroke="black" points="743.97,-261.75 739.22,-252.28 737.02,-262.64 743.97,-261.75"/>
</g>
<!-- 43 -->
<g id="node44" class="node">
<title>43</title>
<ellipse fill="none" stroke="black" cx="809" cy="-234" rx="27" ry="18"/>
<text text-anchor="middle" x="809" y="-230.3" font-family="Times,serif" font-size="14.00">&lt;</text>
</g>
<!-- 41&#45;&gt;43 -->
<g id="edge43" class="edge">
<title>41&#45;&gt;43</title>
<path fill="none" stroke="black" d="M759.36,-290.15C767.88,-280.69 779.09,-268.24 788.69,-257.56"/>
<polygon fill="black" stroke="black" points="791.57,-259.6 795.66,-249.82 786.37,-254.92 791.57,-259.6"/>
</g>
<!-- 44 -->
<g id="node45" class="node">
<title>44</title>
<ellipse fill="none" stroke="black" cx="801" cy="-162" rx="27" ry="18"/>
<text text-anchor="middle" x="801" y="-158.3" font-family="Times,serif" font-size="14.00">b</text>
</g>
<!-- 43&#45;&gt;44 -->
<g id="edge44" class="edge">
<title>43&#45;&gt;44</title>
<path fill="none" stroke="black" d="M807.02,-215.7C806.14,-207.98 805.08,-198.71 804.1,-190.11"/>
<polygon fill="black" stroke="black" points="807.57,-189.64 802.95,-180.1 800.61,-190.44 807.57,-189.64"/>
</g>
<!-- 45 -->
<g id="node46" class="node">
<title>45</title>
<ellipse fill="none" stroke="black" cx="873" cy="-162" rx="27" ry="18"/>
<text text-anchor="middle" x="873" y="-158.3" font-family="Times,serif" font-size="14.00">1</text>
</g>
<!-- 43&#45;&gt;45 -->
<g id="edge45" class="edge">
<title>43&#45;&gt;45</title>
<path fill="none" stroke="black" d="M822.57,-218.15C831.31,-208.6 842.83,-195.99 852.66,-185.25"/>
<polygon fill="black" stroke="black" points="855.28,-187.57 859.45,-177.82 850.12,-182.84 855.28,-187.57"/>
</g>
<!-- 47 -->
<g id="node48" class="node">
<title>47</title>
<ellipse fill="none" stroke="black" cx="850" cy="-450" rx="38.19" ry="18"/>
<text text-anchor="middle" x="850" y="-446.3" font-family="Times,serif" font-size="14.00">DecList</text>
</g>
<!-- 46&#45;&gt;47 -->
<g id="edge47" class="edge">
<title>46&#45;&gt;47</title>
<path fill="none" stroke="black" d="M850,-503.7C850,-495.98 850,-486.71 850,-478.11"/>
<polygon fill="black" stroke="black" points="853.5,-478.1 850,-468.1 846.5,-478.1 853.5,-478.1"/>
</g>
<!-- 48 -->
<g id="node49" class="node">
<title>48</title>
<ellipse fill="none" stroke="black" cx="825" cy="-378" rx="27" ry="18"/>
<text text-anchor="middle" x="825" y="-374.3" font-family="Times,serif" font-size="14.00">bool</text>
</g>
<!-- 47&#45;&gt;48 -->
<g id="edge48" class="edge">
<title>47&#45;&gt;48</title>
<path fill="none" stroke="black" d="M843.95,-432.05C841.09,-424.06 837.62,-414.33 834.43,-405.4"/>
<polygon fill="black" stroke="black" points="837.66,-404.03 831,-395.79 831.06,-406.38 837.66,-404.03"/>
</g>
<!-- 49 -->
<g id="node50" class="node">
<title>49</title>
<ellipse fill="none" stroke="black" cx="904" cy="-378" rx="34.39" ry="18"/>
<text text-anchor="middle" x="904" y="-374.3" font-family="Times,serif" font-size="14.00">DeclId</text>
</g>
<!-- 47&#45;&gt;49 -->
<g id="edge49" class="edge">
<title>47&#45;&gt;49</title>
<path fill="none" stroke="black" d="M862.52,-432.76C869.27,-424.02 877.73,-413.05 885.25,-403.31"/>
<polygon fill="black" stroke="black" points="888.21,-405.2 891.54,-395.15 882.66,-400.93 888.21,-405.2"/>
</g>
<!-- 50 -->
<g id="node51" class="node">
<title>50</title>
<ellipse fill="none" stroke="black" cx="904" cy="-306" rx="27" ry="18"/>
<text text-anchor="middle" x="904" y="-302.3" font-family="Times,serif" font-size="14.00">=</text>
</g>
<!-- 49&#45;&gt;50 -->
<g id="edge50" class="edge">
<title>49&#45;&gt;50</title>
<path fill="none" stroke="black" d="M904,-359.7C904,-351.98 904,-342.71 904,-334.11"/>
<polygon fill="black" stroke="black" points="907.5,-334.1 904,-324.1 900.5,-334.1 907.5,-334.1"/>
</g>
<!-- 51 -->
<g id="node52" class="node">
<title>51</title>
<ellipse fill="none" stroke="black" cx="893" cy="-234" rx="27" ry="18"/>
<text text-anchor="middle" x="893" y="-230.3" font-family="Times,serif" font-size="14.00">r</text>
</g>
<!-- 50&#45;&gt;51 -->
<g id="edge51" class="edge">
<title>50&#45;&gt;51</title>
<path fill="none" stroke="black" d="M901.34,-288.05C900.13,-280.35 898.66,-271.03 897.3,-262.36"/>
<polygon fill="black" stroke="black" points="900.72,-261.61 895.71,-252.28 893.81,-262.7 900.72,-261.61"/>
</g>
<!-- 52 -->
<g id="node53" class="node">
<title>52</title>
<ellipse fill="none" stroke="black" cx="965" cy="-234" rx="27" ry="18"/>
<text text-anchor="middle" x="965" y="-230.3" font-family="Times,serif" font-size="14.00">&lt;</text>
</g>
<!-- 50&#45;&gt;52 -->
<g id="edge52" class="edge">
<title>50&#45;&gt;52</title>
<path fill="none" stroke="black" d="M916.94,-290.15C925.19,-280.69 936.04,-268.24 945.34,-257.56"/>
<polygon fill="black" stroke="black" points="948.15,-259.66 952.08,-249.82 942.87,-255.06 948.15,-259.66"/>
</g>
<!-- 53 -->
<g id="node54" class="node">
<title>53</title>
<ellipse fill="none" stroke="black" cx="957" cy="-162" rx="30.59" ry="18"/>
<text text-anchor="middle" x="957" y="-158.3" font-family="Times,serif" font-size="14.00">&quot;abc&quot;</text>
</g>
<!-- 52&#45;&gt;53 -->
<g id="edge53" class="edge">
<title>52&#45;&gt;53</title>
<path fill="none" stroke="black" d="M963.02,-215.7C962.14,-207.98 961.08,-198.71 960.1,-190.11"/>
<polygon fill="black" stroke="black" points="963.57,-189.64 958.95,-180.1 956.61,-190.44 963.57,-189.64"/>
</g>
<!-- 54 -->
<g id="node55" class="node">
<title>54</title>
<ellipse fill="none" stroke="black" cx="1037" cy="-162" rx="31.4" ry="18"/>
<text text-anchor="middle" x="1037" y="-158.3" font-family="Times,serif" font-size="14.00">&quot;xyz&quot;</text>
</g>
<!-- 52&#45;&gt;54 -->
<g id="edge54" class="edge">
<title>52&#45;&gt;54</title>
<path fill="none" stroke="black" d="M979.57,-218.83C989.52,-209.16 1002.9,-196.15 1014.25,-185.12"/>
<polygon fill="black" stroke="black" points="1016.98,-187.35 1021.71,-177.87 1012.1,-182.33 1016.98,-187.35"/>
</g>
<!-- 56 -->
<g id="node57" class="node">
<title>56</title>
<ellipse fill="none" stroke="black" cx="983" cy="-450" rx="38.19" ry="18"/>
<text text-anchor="middle" x="983" y="-446.3" font-family="Times,serif" font-size="14.00">DecList</text>
</g>
<!-- 55&#45;&gt;56 -->
<g id="edge56" class="edge">
<title>55&#45;&gt;56</title>
<path fill="none" stroke="black" d="M965.57,-504.05C968.16,-496.18 971.3,-486.62 974.2,-477.79"/>
<polygon fill="black" stroke="black" points="977.53,-478.87 977.32,-468.28 970.88,-476.68 977.53,-478.87"/>
</g>
<!-- 57 -->
<g id="node58" class="node">
<title>57</title>
<ellipse fill="none" stroke="black" cx="983" cy="-378" rx="27" ry="18"/>
<text text-anchor="middle" x="983" y="-374.3" font-family="Times,serif" font-size="14.00">float</text>
</g>
<!-- 56&#45;&gt;57 -->
<g id="edge57" class="edge">
<title>56&#45;&gt;57</title>
<path fill="none" stroke="black" d="M983,-431.7C983,-423.98 983,-414.71 983,-406.11"/>
<polygon fill="black" stroke="black" points="986.5,-406.1 983,-396.1 979.5,-406.1 986.5,-406.1"/>
</g>
<!-- 58 -->
<g id="node59" class="node">
<title>58</title>
<ellipse fill="none" stroke="black" cx="1062" cy="-378" rx="34.39" ry="18"/>
<text text-anchor="middle" x="1062" y="-374.3" font-family="Times,serif" font-size="14.00">DeclId</text>
</g>
<!-- 56&#45;&gt;58 -->
<g id="edge58" class="edge">
<title>56&#45;&gt;58</title>
<path fill="none" stroke="black" d="M1000.14,-433.81C1011.09,-424.11 1025.45,-411.39 1037.57,-400.64"/>
<polygon fill="black" stroke="black" points="1040,-403.17 1045.16,-393.92 1035.36,-397.93 1040,-403.17"/>
</g>
<!-- 59 -->
<g id="node60" class="node">
<title>59</title>
<ellipse fill="none" stroke="black" cx="1062" cy="-306" rx="27" ry="18"/>
<text text-anchor="middle" x="1062" y="-302.3" font-family="Times,serif" font-size="14.00">=</text>
</g>
<!-- 58&#45;&gt;59 -->
<g id="edge59" class="edge">
<title>58&#45;&gt;59</title>
<path fill="none" stroke="black" d="M1062,-359.7C1062,-351.98 1062,-342.71 1062,-334.11"/>
<polygon fill="black" stroke="black" points="1065.5,-334.1 1062,-324.1 1058.5,-334.1 1065.5,-334.1"/>
</g>
<!-- 60 -->
<g id="node61" class="node">
<title>60</title>
<ellipse fill="none" stroke="black" cx="1052" cy="-234" rx="27" ry="18"/>
<text text-anchor="middle" x="1052" y="-230.3" font-family="Times,serif" font-size="14.00">q</text>
</g>
<!-- 59&#45;&gt;60 -->
<g id="edge60" class="edge">
<title>59&#45;&gt;60</title>
<path fill="none" stroke="black" d="M1059.58,-288.05C1058.48,-280.35 1057.15,-271.03 1055.91,-262.36"/>
<polygon fill="black" stroke="black" points="1059.35,-261.68 1054.47,-252.28 1052.42,-262.67 1059.35,-261.68"/>
</g>
<!-- 61 -->
<g id="node62" class="node">
<title>61</title>
<ellipse fill="none" stroke="black" cx="1124" cy="-234" rx="27" ry="18"/>
<text text-anchor="middle" x="1124" y="-230.3" font-family="Times,serif" font-size="14.00">+</text>
</g>
<!-- 59&#45;&gt;61 -->
<g id="edge61" class="edge">
<title>59&#45;&gt;61</title>
<path fill="none" stroke="black" d="M1075.15,-290.15C1083.53,-280.69 1094.56,-268.24 1104.02,-257.56"/>
<polygon fill="black" stroke="black" points="1106.86,-259.63 1110.87,-249.82 1101.62,-254.99 1106.86,-259.63"/>
</g>
<!-- 62 -->
<g id="node63" class="node">
<title>62</title>
<ellipse fill="none" stroke="black" cx="1119" cy="-162" rx="27" ry="18"/>
<text text-anchor="middle" x="1119" y="-158.3" font-family="Times,serif" font-size="14.00">!</text>
</g>
<!-- 61&#45;&gt;62 -->
<g id="edge62" class="edge">
<title>61&#45;&gt;62</title>
<path fill="none" stroke="black" d="M1122.76,-215.7C1122.21,-207.98 1121.55,-198.71 1120.94,-190.11"/>
<polygon fill="black" stroke="black" points="1124.43,-189.83 1120.22,-180.1 1117.44,-190.33 1124.43,-189.83"/>
</g>
<!-- 66 -->
<g id="node67" class="node">
<title>66</title>
<ellipse fill="none" stroke="black" cx="1197" cy="-162" rx="33.29" ry="18"/>
<text text-anchor="middle" x="1197" y="-158.3" font-family="Times,serif" font-size="14.00">Times</text>
</g>
<!-- 61&#45;&gt;66 -->
<g id="edge66" class="edge">
<title>61&#45;&gt;66</title>
<path fill="none" stroke="black" d="M1138.77,-218.83C1148.79,-209.23 1162.25,-196.33 1173.7,-185.34"/>
<polygon fill="black" stroke="black" points="1176.44,-187.56 1181.24,-178.11 1171.6,-182.51 1176.44,-187.56"/>
</g>
<!-- 63 -->
<g id="node64" class="node">
<title>63</title>
<ellipse fill="none" stroke="black" cx="1119" cy="-90" rx="27" ry="18"/>
<text text-anchor="middle" x="1119" y="-86.3" font-family="Times,serif" font-size="14.00">+</text>
</g>
<!-- 62&#45;&gt;63 -->
<g id="edge63" class="edge">
<title>62&#45;&gt;63</title>
<path fill="none" stroke="black" d="M1119,-143.7C1119,-135.98 1119,-126.71 1119,-118.11"/>
<polygon fill="black" stroke="black" points="1122.5,-118.1 1119,-108.1 1115.5,-118.1 1122.5,-118.1"/>
</g>
<!-- 64 -->
<g id="node65" class="node">
<title>64</title>
<ellipse fill="none" stroke="black" cx="1050" cy="-18" rx="27" ry="18"/>
<text text-anchor="middle" x="1050" y="-14.3" font-family="Times,serif" font-size="14.00">2</text>
</g>
<!-- 63&#45;&gt;64 -->
<g id="edge64" class="edge">
<title>63&#45;&gt;64</title>
<path fill="none" stroke="black" d="M1104.7,-74.5C1095.08,-64.73 1082.22,-51.69 1071.39,-40.7"/>
<polygon fill="black" stroke="black" points="1073.79,-38.15 1064.28,-33.49 1068.81,-43.06 1073.79,-38.15"/>
</g>
<!-- 65 -->
<g id="node66" class="node">
<title>65</title>
<ellipse fill="none" stroke="black" cx="1122" cy="-18" rx="27" ry="18"/>
<text text-anchor="middle" x="1122" y="-14.3" font-family="Times,serif" font-size="14.00">3</text>
</g>
<!-- 63&#45;&gt;65 -->
<g id="edge65" class="edge">
<title>63&#45;&gt;65</title>
<path fill="none" stroke="black" d="M1119.74,-71.7C1120.07,-63.98 1120.47,-54.71 1120.84,-46.11"/>
<polygon fill="black" stroke="black" points="1124.34,-46.25 1121.27,-36.1 1117.34,-45.95 1124.34,-46.25"/>
</g>
<!-- 67 -->
<g id="node68" class="node">
<title>67</title>
<ellipse fill="none" stroke="black" cx="1196" cy="-90" rx="27" ry="18"/>
<text text-anchor="middle" x="1196" y="-86.3" font-family="Times,serif" font-size="14.00">~</text>
</g>
<!-- 66&#45;&gt;67 -->
<g id="edge67" class="edge">
<title>66&#45;&gt;67</title>
<path fill="none" stroke="black" d="M1196.75,-143.7C1196.64,-135.98 1196.51,-126.71 1196.39,-118.11"/>
<polygon fill="black" stroke="black" points="1199.89,-118.05 1196.24,-108.1 1192.89,-118.15 1199.89,-118.05"/>
</g>
<!-- 69 -->
<g id="node70" class="node">
<title>69</title>
<ellipse fill="none" stroke="black" cx="1285" cy="-90" rx="27" ry="18"/>
<text text-anchor="middle" x="1285" y="-86.3" font-family="Times,serif" font-size="14.00">&#45;</text>
</g>
<!-- 66&#45;&gt;69 -->
<g id="edge69" class="edge">
<title>66&#45;&gt;69</title>
<path fill="none" stroke="black" d="M1215.23,-146.5C1228.28,-136.12 1245.99,-122.03 1260.3,-110.64"/>
<polygon fill="black" stroke="black" points="1262.63,-113.27 1268.28,-104.3 1258.27,-107.79 1262.63,-113.27"/>
</g>
<!-- 68 -->
<g id="node69" class="node">
<title>68</title>
<ellipse fill="none" stroke="black" cx="1195" cy="-18" rx="27" ry="18"/>
<text text-anchor="middle" x="1195" y="-14.3" font-family="Times,serif" font-size="14.00">3.14</text>
</g>
<!-- 67&#45;&gt;68 -->
<g id="edge68" class="edge">
<title>67&#45;&gt;68</title>
<path fill="none" stroke="black" d="M1195.75,-71.7C1195.64,-63.98 1195.51,-54.71 1195.39,-46.11"/>
<polygon fill="black" stroke="black" points="1198.89,-46.05 1195.24,-36.1 1191.89,-46.15 1198.89,-46.05"/>
</g>
<!-- 70 -->
<g id="node71" class="node">
<title>70</title>
<ellipse fill="none" stroke="black" cx="1302" cy="-18" rx="61.99" ry="18"/>
<text text-anchor="middle" x="1302" y="-14.3" font-family="Times,serif" font-size="14.00">&quot;unary errors&quot;</text>
</g>
<!-- 69&#45;&gt;70 -->
<g id="edge70" class="edge">
<title>69&#45;&gt;70</title>
<path fill="none" stroke="black" d="M1289.12,-72.05C1291.01,-64.26 1293.3,-54.82 1295.42,-46.08"/>
<polygon fill="black" stroke="black" points="1298.85,-46.82 1297.8,-36.28 1292.04,-45.17 1298.85,-46.82"/>
</g>
<!-- 72 -->
<g id="node73" class="node">
<title>72</title>
<ellipse fill="none" stroke="black" cx="1141" cy="-450" rx="27" ry="18"/>
<text text-anchor="middle" x="1141" y="-446.3" font-family="Times,serif" font-size="14.00">=</text>
</g>
<!-- 71&#45;&gt;72 -->
<g id="edge72" class="edge">
<title>71&#45;&gt;72</title>
<path fill="none" stroke="black" d="M1086.11,-505.12C1095.86,-495.51 1108.41,-483.13 1119.06,-472.63"/>
<polygon fill="black" stroke="black" points="1121.74,-474.91 1126.4,-465.39 1116.82,-469.92 1121.74,-474.91"/>
</g>
<!-- 73 -->
<g id="node74" class="node">
<title>73</title>
<ellipse fill="none" stroke="black" cx="1141" cy="-378" rx="27" ry="18"/>
<text text-anchor="middle" x="1141" y="-374.3" font-family="Times,serif" font-size="14.00">p</text>
</g>
<!-- 72&#45;&gt;73 -->
<g id="edge73" class="edge">
<title>72&#45;&gt;73</title>
<path fill="none" stroke="black" d="M1141,-431.7C1141,-423.98 1141,-414.71 1141,-406.11"/>
<polygon fill="black" stroke="black" points="1144.5,-406.1 1141,-396.1 1137.5,-406.1 1144.5,-406.1"/>
</g>
<!-- 74 -->
<g id="node75" class="node">
<title>74</title>
<ellipse fill="none" stroke="black" cx="1213" cy="-378" rx="27" ry="18"/>
<text text-anchor="middle" x="1213" y="-374.3" font-family="Times,serif" font-size="14.00">!</text>
</g>
<!-- 72&#45;&gt;74 -->
<g id="edge74" class="edge">
<title>72&#45;&gt;74</title>
<path fill="none" stroke="black" d="M1155.57,-434.83C1165.75,-424.94 1179.52,-411.55 1191.03,-400.36"/>
<polygon fill="black" stroke="black" points="1193.47,-402.87 1198.2,-393.38 1188.59,-397.85 1193.47,-402.87"/>
</g>
<!-- 75 -->
<g id="node76" class="node">
<title>75</title>
<ellipse fill="none" stroke="black" cx="1213" cy="-306" rx="27" ry="18"/>
<text text-anchor="middle" x="1213" y="-302.3" font-family="Times,serif" font-size="14.00">r</text>
</g>
<!-- 74&#45;&gt;75 -->
<g id="edge75" class="edge">
<title>74&#45;&gt;75</title>
<path fill="none" stroke="black" d="M1213,-359.7C1213,-351.98 1213,-342.71 1213,-334.11"/>
<polygon fill="black" stroke="black" points="1216.5,-334.1 1213,-324.1 1209.5,-334.1 1216.5,-334.1"/>
</g>
<!-- 77 -->
<g id="node78" class="node">
<title>77</title>
<ellipse fill="none" stroke="black" cx="1285" cy="-450" rx="27" ry="18"/>
<text text-anchor="middle" x="1285" y="-446.3" font-family="Times,serif" font-size="14.00">=</text>
</g>
<!-- 76&#45;&gt;77 -->
<g id="edge77" class="edge">
<title>76&#45;&gt;77</title>
<path fill="none" stroke="black" d="M1202.27,-506.15C1218.57,-495.29 1240.77,-480.49 1258.07,-468.95"/>
<polygon fill="black" stroke="black" points="1260.23,-471.72 1266.61,-463.26 1256.35,-465.89 1260.23,-471.72"/>
</g>
<!-- 78 -->
<g id="node79" class="node">
<title>78</title>
<ellipse fill="none" stroke="black" cx="1285" cy="-378" rx="27" ry="18"/>
<text text-anchor="middle" x="1285" y="-374.3" font-family="Times,serif" font-size="14.00">r</text>
</g>
<!-- 77&#45;&gt;78 -->
<g id="edge78" class="edge">
<title>77&#45;&gt;78</title>
<path fill="none" stroke="black" d="M1285,-431.7C1285,-423.98 1285,-414.71 1285,-406.11"/>
<polygon fill="black" stroke="black" points="1288.5,-406.1 1285,-396.1 1281.5,-406.1 1288.5,-406.1"/>
</g>
<!-- 79 -->
<g id="node80" class="node">
<title>79</title>
<ellipse fill="none" stroke="black" cx="1357" cy="-378" rx="27" ry="18"/>
<text text-anchor="middle" x="1357" y="-374.3" font-family="Times,serif" font-size="14.00">!</text>
</g>
<!-- 77&#45;&gt;79 -->
<g id="edge79" class="edge">
<title>77&#45;&gt;79</title>
<path fill="none" stroke="black" d="M1299.57,-434.83C1309.75,-424.94 1323.52,-411.55 1335.03,-400.36"/>
<polygon fill="black" stroke="black" points="1337.47,-402.87 1342.2,-393.38 1332.59,-397.85 1337.47,-402.87"/>
</g>
<!-- 80 -->
<g id="node81" class="node">
<title>80</title>
<ellipse fill="none" stroke="black" cx="1357" cy="-306" rx="27" ry="18"/>
<text text-anchor="middle" x="1357" y="-302.3" font-family="Times,serif" font-size="14.00">p</text>
</g>
<!-- 79&#45;&gt;80 -->
<g id="edge80" class="edge">
<title>79&#45;&gt;80</title>
<path fill="none" stroke="black" d="M1357,-359.7C1357,-351.98 1357,-342.71 1357,-334.11"/>
<polygon fill="black" stroke="black" points="1360.5,-334.1 1357,-324.1 1353.5,-334.1 1360.5,-334.1"/>
</g>
<!-- 82 -->
<g id="node83" class="node">
<title>82</title>
<ellipse fill="none" stroke="black" cx="1465" cy="-450" rx="28.7" ry="18"/>
<text text-anchor="middle" x="1465" y="-446.3" font-family="Times,serif" font-size="14.00">Emit</text>
</g>
<!-- 81&#45;&gt;82 -->
<g id="edge82" class="edge">
<title>81&#45;&gt;82</title>
<path fill="none" stroke="black" d="M1321.29,-508.49C1352.56,-495.98 1400.45,-476.82 1432.23,-464.11"/>
<polygon fill="black" stroke="black" points="1433.56,-467.35 1441.54,-460.38 1430.96,-460.85 1433.56,-467.35"/>
</g>
<!-- 83 -->
<g id="node84" class="node">
<title>83</title>
<ellipse fill="none" stroke="black" cx="1429" cy="-378" rx="27" ry="18"/>
<text text-anchor="middle" x="1429" y="-374.3" font-family="Times,serif" font-size="14.00">s</text>
</g>
<!-- 82&#45;&gt;83 -->
<g id="edge83" class="edge">
<title>82&#45;&gt;83</title>
<path fill="none" stroke="black" d="M1456.65,-432.76C1452.29,-424.28 1446.85,-413.71 1441.96,-404.2"/>
<polygon fill="black" stroke="black" points="1444.99,-402.44 1437.3,-395.15 1438.77,-405.64 1444.99,-402.44"/>
</g>
<!-- 84 -->
<g id="node85" class="node">
<title>84</title>
<ellipse fill="none" stroke="black" cx="1501" cy="-378" rx="27" ry="18"/>
<text text-anchor="middle" x="1501" y="-374.3" font-family="Times,serif" font-size="14.00">m</text>
</g>
<!-- 82&#45;&gt;84 -->
<g id="edge84" class="edge">
<title>82&#45;&gt;84</title>
<path fill="none" stroke="black" d="M1473.35,-432.76C1477.71,-424.28 1483.15,-413.71 1488.04,-404.2"/>
<polygon fill="black" stroke="black" points="1491.23,-405.64 1492.7,-395.15 1485.01,-402.44 1491.23,-405.64"/>
</g>
<!-- 85 -->
<g id="node86" class="node">
<title>85</title>
<ellipse fill="none" stroke="black" cx="1573" cy="-378" rx="27" ry="18"/>
<text text-anchor="middle" x="1573" y="-374.3" font-family="Times,serif" font-size="14.00">Cast</text>
</g>
<!-- 82&#45;&gt;85 -->
<g id="edge85" class="edge">
<title>82&#45;&gt;85</title>
<path fill="none" stroke="black" d="M1484.31,-436.49C1501.38,-425.42 1526.48,-409.15 1545.63,-396.74"/>
<polygon fill="black" stroke="black" points="1547.73,-399.55 1554.22,-391.17 1543.93,-393.67 1547.73,-399.55"/>
</g>
<!-- 86 -->
<g id="node87" class="node">
<title>86</title>
<ellipse fill="none" stroke="black" cx="1537" cy="-306" rx="27" ry="18"/>
<text text-anchor="middle" x="1537" y="-302.3" font-family="Times,serif" font-size="14.00">int</text>
</g>
<!-- 85&#45;&gt;86 -->
<g id="edge86" class="edge">
<title>85&#45;&gt;86</title>
<path fill="none" stroke="black" d="M1564.65,-360.76C1560.29,-352.28 1554.85,-341.71 1549.96,-332.2"/>
<polygon fill="black" stroke="black" points="1552.99,-330.44 1545.3,-323.15 1546.77,-333.64 1552.99,-330.44"/>
</g>
<!-- 87 -->
<g id="node88" class="node">
<title>87</title>
<ellipse fill="none" stroke="black" cx="1609" cy="-306" rx="27" ry="18"/>
<text text-anchor="middle" x="1609" y="-302.3" font-family="Times,serif" font-size="14.00">+</text>
</g>
<!-- 85&#45;&gt;87 -->
<g id="edge87" class="edge">
<title>85&#45;&gt;87</title>
<path fill="none" stroke="black" d="M1581.35,-360.76C1585.71,-352.28 1591.15,-341.71 1596.04,-332.2"/>
<polygon fill="black" stroke="black" points="1599.23,-333.64 1600.7,-323.15 1593.01,-330.44 1599.23,-333.64"/>
</g>
<!-- 88 -->
<g id="node89" class="node">
<title>88</title>
<ellipse fill="none" stroke="black" cx="1573" cy="-234" rx="27" ry="18"/>
<text text-anchor="middle" x="1573" y="-230.3" font-family="Times,serif" font-size="14.00">q</text>
</g>
<!-- 87&#45;&gt;88 -->
<g id="edge88" class="edge">
<title>87&#45;&gt;88</title>
<path fill="none" stroke="black" d="M1600.65,-288.76C1596.29,-280.28 1590.85,-269.71 1585.96,-260.2"/>
<polygon fill="black" stroke="black" points="1588.99,-258.44 1581.3,-251.15 1582.77,-261.64 1588.99,-258.44"/>
</g>
<!-- 89 -->
<g id="node90" class="node">
<title>89</title>
<ellipse fill="none" stroke="black" cx="1645" cy="-234" rx="27" ry="18"/>
<text text-anchor="middle" x="1645" y="-230.3" font-family="Times,serif" font-size="14.00">x</text>
</g>
<!-- 87&#45;&gt;89 -->
<g id="edge89" class="edge">
<title>87&#45;&gt;89</title>
<path fill="none" stroke="black" d="M1617.35,-288.76C1621.71,-280.28 1627.15,-269.71 1632.04,-260.2"/>
<polygon fill="black" stroke="black" points="1635.23,-261.64 1636.7,-251.15 1629.01,-258.44 1635.23,-261.64"/>
</g>
</g>
</svg>
